/* XPM */
static char *_bda51255ccc45a6d3bb3983f1e6a4d0AiTndaOXaixe5JF8[] = {
/* columns rows colors chars-per-pixel */
"64 64 246 2 ",
"   c #1D0305",
".  c #1C0C05",
"X  c #1E0B0C",
"o  c #140807",
"O  c #16110E",
"+  c #1C0E14",
"@  c #171113",
"#  c #0C0203",
"$  c #220304",
"%  c #2C0203",
"&  c #24050A",
"*  c #2B0309",
"=  c #240C0C",
"-  c #2B0C0D",
";  c #2A0C06",
":  c #33050C",
">  c #3C050B",
",  c #340C0D",
"<  c #3B0B0D",
"1  c #380C07",
"2  c #2D120E",
"3  c #25120B",
"4  c #33120E",
"5  c #39120F",
"6  c #39180F",
"7  c #230D13",
"8  c #2C0D12",
"9  c #2B0B17",
"0  c #3C0711",
"q  c #340C13",
"w  c #3C0D14",
"e  c #3B0E19",
"r  c #350B19",
"t  c #241213",
"y  c #2C1313",
"u  c #2A151A",
"i  c #341313",
"p  c #3B1214",
"a  c #3B1916",
"s  c #351519",
"d  c #3B141B",
"f  c #3D1A1B",
"g  c #361A17",
"h  c #3E211B",
"j  c #3C1421",
"k  c #3B1A22",
"l  c #3A0F22",
"z  c #42060C",
"x  c #430D0D",
"c  c #4A0C0E",
"v  c #420107",
"b  c #42100F",
"n  c #4C130F",
"m  c #430D13",
"M  c #4B0D14",
"N  c #430D1A",
"B  c #4B0E1A",
"V  c #4A0616",
"C  c #5B0B15",
"Z  c #5E0D1A",
"A  c #510D17",
"S  c #431315",
"D  c #4B1214",
"F  c #44151B",
"G  c #4B141B",
"H  c #45191B",
"J  c #4C1A1C",
"K  c #481816",
"L  c #531416",
"P  c #5B1517",
"I  c #53141C",
"U  c #5B151C",
"Y  c #541A1C",
"T  c #5B1A1D",
"R  c #591A13",
"E  c #5D0B0D",
"W  c #640B18",
"Q  c #691415",
"!  c #64131D",
"~  c #69141D",
"^  c #62191D",
"/  c #6B1B1E",
"(  c #691A16",
")  c #74161E",
"_  c #721B1D",
"`  c #79161E",
"'  c #6D1315",
"]  c #49241B",
"[  c #65211C",
"{  c #6A221E",
"}  c #78201F",
"|  c #76201F",
" . c #451C23",
".. c #4C1B22",
"X. c #451521",
"o. c #541521",
"O. c #5C1522",
"+. c #551B22",
"@. c #5C1B23",
"#. c #5C1D2A",
"$. c #581B29",
"%. c #580F20",
"&. c #641623",
"*. c #6B1623",
"=. c #631B23",
"-. c #6B1C24",
";. c #651D2A",
":. c #6C1D29",
">. c #691629",
",. c #731525",
"<. c #731D26",
"1. c #7B1D25",
"2. c #7B152A",
"3. c #731D2A",
"4. c #7B1D2B",
"5. c #7A1526",
"6. c #7E1D30",
"7. c #651728",
"8. c #4A2029",
"9. c #562124",
"0. c #5C2223",
"q. c #5C242A",
"w. c #57292C",
"e. c #5C2E30",
"r. c #632224",
"t. c #6B2226",
"y. c #64222A",
"u. c #6B232B",
"i. c #652A29",
"p. c #6C2B2B",
"a. c #662A26",
"s. c #732225",
"d. c #7A2225",
"f. c #74232B",
"g. c #7C222C",
"h. c #732A2D",
"j. c #7B2A2D",
"k. c #6D2A33",
"l. c #6A2934",
"z. c #742431",
"x. c #7C2432",
"c. c #742B33",
"v. c #7B2B34",
"b. c #7F2D39",
"n. c #752D39",
"m. c #6F373D",
"M. c #7F3236",
"N. c #74383A",
"B. c #783336",
"V. c #7F3340",
"C. c #910D22",
"Z. c #811624",
"A. c #831B26",
"S. c #831E2C",
"D. c #8B1D2B",
"F. c #851728",
"G. c #921D2C",
"H. c #9A1C2C",
"J. c #941927",
"K. c #841D32",
"L. c #8B1E31",
"P. c #941F33",
"I. c #9A1F31",
"U. c #AB1D2D",
"Y. c #AA1D32",
"T. c #A61E32",
"R. c #B11D37",
"E. c #822227",
"W. c #8A2225",
"Q. c #83232D",
"!. c #8B232D",
"~. c #842A2C",
"^. c #8B2B2D",
"/. c #93232C",
"(. c #9C232C",
"). c #952B2F",
"_. c #972729",
"`. c #842532",
"'. c #8B2432",
"]. c #832B33",
"[. c #8B2B34",
"{. c #8B2538",
"}. c #842C3A",
"|. c #8B2D3A",
" X c #822439",
".X c #922333",
"XX c #9B2334",
"oX c #942B34",
"OX c #9C2B34",
"+X c #93253A",
"@X c #9D2639",
"#X c #942C3A",
"$X c #9C2C3B",
"%X c #843134",
"&X c #8B3134",
"*X c #84323B",
"=X c #8C333B",
"-X c #8B3938",
";X c #9C3236",
":X c #93333B",
">X c #9C313D",
",X c #963638",
"<X c #A0222E",
"1X c #A52D2F",
"2X c #A52433",
"3X c #AC2436",
"4X c #A22B35",
"5X c #AB2C34",
"6X c #A32539",
"7X c #AB263A",
"8X c #A32C3C",
"9X c #AB2C3C",
"0X c #B42B3B",
"qX c #BC2A3C",
"wX c #B32639",
"eX c #A4323C",
"rX c #AB333B",
"tX c #AB3335",
"yX c #B3323D",
"uX c #BC313E",
"iX c #CF1E3A",
"pX c #C2253A",
"aX c #873641",
"sX c #933544",
"dX c #9C3443",
"fX c #973B42",
"gX c #9B3D44",
"hX c #912E42",
"jX c #A32D42",
"kX c #AB2D42",
"lX c #B22C42",
"zX c #BA2D42",
"xX c #B82843",
"cX c #A53344",
"vX c #AB3443",
"bX c #A53944",
"nX c #AC3A44",
"mX c #AA374A",
"MX c #B13243",
"NX c #B83645",
"BX c #B53851",
"VX c #C91D41",
"CX c #C72D49",
"ZX c #C4364E",
"AX c #974146",
"SX c #A74347",
/* pixels */
" XL P #XP.].[ ].9X'.-.K a e.m.;.v.f.-.f.b.}.4.2.~ ~ *.-.-.4.4.S.G.I.2X7X7X9X8X8XtX_.@XmXdX4.s.-XgXM.i.9.G *.'.8XAXh.L =. XK.z.m.",
"}.Y T #X6XdXQ.XXT.6X>Xg.! ,.K.L.g.].z.-.g.sXsX{.c.f.t.t.t.f.x.].[.oX;XrXrXrXrXrXtXnXSX:Xf.1.oXnXNX.XZ.4.{.#XvX9Xs.Q ~ b.aX;.:.AX",
"hXY K Q.XXcXXXR.^.^.~.-.C C 3.aX,.].=Xg.,.`.#XdX:X[.~.g.1.1.S.S.W._._.1XtXtXtX5XMXbX=Xt.t.[.rXuXdXS.5.4.~.~.d.Q Q ` D.=XN.0.f.BX",
"dXY K ~ Z.|.+XlX,X^.} / ^ U @.l.`.`.{.|.`.5.Z.'.9X0X9X9X9X9X7X2XwXwX0X0X0X9X5X7X'.1.~ s.&XeXyXuXk.t.g.`.1._ ( R W.>X:Xh.a.p.[.vX",
"mX&.Y &.-.u.k.|.9X5XXX@X#X3.A I sX`.4.+XdX#X!.A.H.<X2X7X9X9XrXeXkX9X8XoX'.g.<.*.U ! 1.@XrXrX;X,XO.&.K.$X2X2XrXeX4XfXp.Y &.[.:X,X",
"kX*.u.f.f.J H q.Z.'.4.<.u.L > F f.v.|.'..X$XeX4X!.!.W.A.1.d.d.s.<.-.&.Y G K S S =.~.@XwXzXnX&X[ ..G ^ g.!.oX#X#X.X-.S J z.oXoXAX",
"cX! h.{.{.B w +.S ..p ; g p w w.A u.=X'.D./.4XrXbXeX$XoX!.E.d.s.-.^ ^ T =.t.h.j.>X>XeXrXeX,Xf.U w.H J T Y T +.G =.L M @.b.|.[.fX",
"mX! z.+XjXW I u.F 8.p q q.u.~ 2.y.U *.#XnX4X(.(.wXwXxXxX0X7X@X.X^.^.~.!./.2XwXqXzX9XrXSX~.E ! }. X<.<.f.=.O.#.#.h q.3.3.c.N.*X>X",
"9Xi.5..XdXL Z.].1..Xg z kX=.^ [.:.&.Y > N.fX0XiXoXoXoXOXOXeXeXeX;X;XOX4X5X5X5X5XCX6X].y.m u.*.}.oX~ j.:XD..X[.h.s.h.;.u.u.*Xg.gX",
"kXi.Z..X$XL F.].!.cXh U BXt.f.#X1.].u.m w x 4.vXqXqXqXwX3X2X<X(.U.U.3XwXzXyX5XOX!.~ J J G u.<.].>X<.v.:X.X@X:Xj.s.h.;.r.u.*Xg.gX",
"lXa.F.#X$XY L.]..XmXa *.BX-.[.oXD.#X*.+.i   i H ~.^.oXeXyXqXqXpXqX0X0XkX>X[.f.=.p ;   p q.*.~.~.>Xg.j.:X$X8X>X`.s.h.;.y.u.*X1.gX",
"lXa.D.$X$XT .X XXXbX1 4.MX~ #X!./.8XW c.8.+ + # . 3 6 J =.<.4.S.j.f.=.Y K i X o @ o # i k.~ ~.~.>Xg.s.[.$X6X>X~.s.h.-.;.u.*X<.fX",
"0Xr.D.$X@XT +X`.2XgX1 .XkX*.8X!.OXvX` v.N   u u * & & X X O O O 2 ; $   X X @ @ 7 7   e n.W ~.~.$X~./ ].$XXXeX~.s.h.=.;.u.v.<.:X",
"0X[ G.8XXXT $X!.3X&Xx @X$Xs.9XQ.tXeXS.z.0 $ j d j l r 9 9 7 + + = & - q e d e r q q & w l.*.<.%XoX].^ j.>XXXeX[.d.g.-.;.y.v.*.=X",
"zX{ G.8XXX^ jX!.wXj.x 6X.Xj.3X~.rX(.'.=.p 8 d : t 7 8 8 r e N N s r w w w w : * q 9   - $.z.~ `..X%XP j.>XG.eX'.d.g.&.&.r.v./ =X",
"zX{ /.eXXX^ cX!.qXs.n 9X'.%X3X~.yX(.:XL ; = f p i i i i 2 2 2 2 k d s s s s s y i y o X ..V.W S.!.%XL h.:XD.$X'.d.g.&.&.r.c./ =X",
"MX1..XjXg.A.9XE.CX0.n ZXs.R.&X2X0XG.aX, y & w H F y o.q q o.- N U G S 0 F ..q y r i 7 & N n.Z <.g.7X-.] dXJ.;X).1.h.S.B w.c.L dX",
"vXg..XjXg.S.9X!.zXT P NXs.Y.^.7X3X/.v., s & p J J i O.w q o.y G =.I G m J +.q i w 9 = = d u.^ &.d.6Xs.H :XH.oX).1.h.S.B w.z.L dX",
"kXg..X8Xg.!.6X'.lXL <.MXd.3X!.MX<XoX^ q s 8 S +.I i @.w w O.i I ;.@.+.m +.$.w p d 8 X 7 d I u.P s..Xv.K g.@X/.).d.h.S.L q.z.L #X",
"9Xg..X8X<.'.XX'.jXD !.8Xg.7XD.nX/.|.M w k 8 S +.I p 7.S S 7.p o.3.;.@.B O.y.m w H - X t d 0 l.L -.S.|.D -.eXG.^.E.u.K.L 9.z.L +X",
"8Xg..X8X<.oXH.:X+XD 7XoX~.2XH.bX!.v.z p k q F T U p &.m m &.p U 4.:.=.B O.u.M w H - = t d : i.L ^ 1.#XU P dXJ.[.Q.f.L.I +.f.Y '.",
"8X~..X8X1.>XJ.dXg.T xXE.%XXX2XoX].^ m d k q J T U p &.S S &.p I 4.-.=.M O.u.G < H , = y p 0 $.+.T -.#X*.K sXJ.~.!.f.'.O.+.f.Y {.",
"$Xg..X8X) >XC.bX-.a.VX<.=X/.0XQ.v.v H d k q +.T +.S ;.S S &.p Y <.-.@.M @.k.G < I w - y e N m y.P t.+X4.H }.H.].oXf..X=.Y f.+.`.",
"$Xg..X8X) dXC.bX^ p.VX/ -X!.zX` c.% ..d k q @.T @.H ;.F F &.p Y <.-.@.c @.k.L < L w - i w o.> l.L u.P.{.H v.H.].oXf..X=.Y f.@.`.",
"oX!.|.].1.'..X8XP #X!.g.^.Y.9Xh.s * F H H < Y =.! J :.m G ;.i I -.g.=.x @.`.C i o.w - d H w w d z.Y ~.OXR / XXg.'.!.[.-.T r.-.`.",
"oXS.|.~.d.[..X@X^ #X!.~.oXT.@Xt.s * H H H < +.=.^ J :.m G ;.i I -.g.=.x =.`.C i $.w 8 d H m w d ;.=.1.[.{ ( oX1.[.!.`.<.^ r.-.`.",
"oXS.|.~.E.[.!./.<.#XD.Q.oXXX'.@.s : H H H < +.;.&.J 3.M G ;.p I -.g.=.x @.`.C i $.w , d F N w d H f.W v.~.Q %XA.'.!.'.<.=.u.-.{.",
"#X1.[.g.~.'.'.D.!..XD.!.$X.X<.L d : J J J < +.;.&.Y 3.D G :.p I -.g.=.b =.`.C i #.m q d ..G N H i 3.~ p..X) p./.~.S.'.<.-.u.3.].",
"#X1.|.1.[.~.'.Z.XX'.Q.!.#X`.I D d : I o.+.m @.;.&.+.4.D J :.p o.-.g.=.b =.`.Z p #.N q d ..G F H - Z f.t.!.~.T $X~.S.'.4.-.f.3.].",
"[.) |.1.[.E.'.A.@Xg.g.!..Xu.w S d 0 o.o.+.m @.:.-.+.f.G J :.p o.-.g.=.b r.{.Z p ;.B q H +.o.G F 8 m c.-.E.].W #X~.S..XS.<.f.3. X",
"[.) |.) [.S.[.E.XXf.j.!.'.@.* H H 0 o.o.+.m =.:.*.+.4.G I :.w o.-.g.=.b r.{.Z g ;.B 0 F +.o.G F y i -.,.g.].` `.~.!.oX!.<.h.3.x.",
"].~ =X) [.1.'.E.@Xt.B.'.S.J $ X.H 0 o.+.+.M =.3.*.9.4.G I :.w o.-.g.=.S r.{.Z g ;.G 0 F $.o.G H i u C Z.B.j.D.f.~.!.#X!.f.h.3.x.",
"`.g.g.g.~.`.'.'.[ E.P.K.@.- - ..O.; +.2.@.S 3.4.*.@.4.L L :.w I =.<.<.D T `.! S 6.F 2 I *.O.J Y i - N :.K..XQ._ `.].g.[.1.Q.1.`.",
"~.g.g.g.~.`.'.!.{ Q.L.4...8 , I O.- +.2.@.S 3.4.*.@.4.L L :.p I =.<.<.D T `.! S 6.F 4 I *.+.J U i q S @.3.'.'.1.~.].g.[.1.~.1.`.",
"g.g.g.g.`.`.~.!.d.!.4.&.F y q I O.; +.5.=.S 3.4.*.@.g.L L :.p I =.<.<.D T `.! p 6.F 2 Y :.@.I +.q q H o.O.g.oX/.g.~.g.].g.~.4.`.",
"f.f.g.Q.`.`.Q.4.Q.`.-.F s i w I O.- +.2.r.S 3.4.*.@.g.L I :.p I =.<.<.D T `.! p K.G 5 U 3.=.Y @., p X.F S ;.oXXXE.E.E.`.~.Q.g.~.",
"f.f.g.E.~.`.Q.4.!.g.O.p s i w L &.- @.2.y.K <.4.*.0.g.L Y :.p I =.<.<.D T `.! p K.G 5 T 3.&.Y =., p ..F q +. X@XQ.S.Q.~.[.!.~.~.",
"f.s.4.E.!.`.g.f.<.;.G d f w m I &.4 =.S.u.K <.4.*.0.g.P Y :.p I =.<.<.D T `.! p L.G 5 T 4.-.T =.i m o.H q S u.'.`.S.`.Q.|.Q.'.`.",
"u.s.1.S.!.~.g.f.;.I w H ..m z +.*.5 =.S.u.K <.2.*.0.g.Y Y f.p I =.<.<.D T `.! p L.L 5 ^ 4.-.@.-.g m %.o.q , +.x.'.S.'.S.#X!.'.'.",
"u.s.<.4.!.Q.g.f.+.S q  .$.V > 9.&.4 r.S.u.K <.1.*.0.x.Y Y f.p I =.<.<.D T `.! p L.L p ^ 4.-.=.-.g m Z 7.w & F u.#X!.'.S.#X!.'.'.",
"g.t.s.j.g.g.f.=.w s H O.o.i i =.:.4 @.S.f.L <.<.&.-.L.G J 4.m F =.4.f.D Y `.~ S D.@.q &.`./ -.3.d w o.$.w q H w x.#X/.!.-Xj.1.@X",
"f./ <.g.g.f.;.F w s F O.O.i p =.3.5 @.S.h.L <.s.&.-.L.G J 4.m F =.4.f.D Y `.~ S D.@.q &.`./ -.4.d w o.#.m w H w V }.#XZ.d.].[./.",
"p.-.d.~.g.t.+.q w d F &.@.p p &.3.5 @.D.h.L <.s.=.-.L.G J 4.m F =.4.f.D Y `.~ S D.0.w &.`.<.-.4.p m @.#.m w H w % u.:XD.A.oX$X.X",
"0.t.Q.'.<.@.H 8 m f H &.=.p S *.3.5 @.D.h.L <.<.=.-.L.L Y 4.m F ^ 4.f.D Y `.~ S D.0.w &.`.<.s.4.p m @.=.N p H m - S f.#X.XG..XoX",
"J =.~.S.U S i & M H Y *.;.S S -.3.5 =.D.h.P 4.<.=.-.L.Y Y 4.m F ^ 4.f.D Y `.~ S !.r.w &.'._ s.E.p m =.;.M S H m y * B `.#XD.F.Q.",
"F ;.`.<.m q s r B H +.3.:.K D <.3.5 =.L.g.P 4.<.=.-.'.Y Y 4.m F =.4.f.D Y `.~ S G.r.w &.!.| s.Q.S m =.;.G S J S 8 8 < P `.#X`.-.",
"F =.f.=., y d N B H +.3.3.K K <.3.5 =.L.g.P 4.1.=.;.'.Y +.4.m F =.4.f.D Y `.~ S /.r.w *.!.} s.!.S M =.u.L G J M 8 k i 1 -.|.x.=.",
"F O.:.L = t j V A J +.3.3.J D <.3.p =.L.g.P 4.1.=.;.'.Y +.4.m F =.4.f.D Y `.~ S /.r.w *.!.} d.~.S M &.u.L F +.D :  .y $ Y 3.! O.",
"+.^ ! T q 9 8.z G @.T <.D.L p 4.g., @.'.h.P f.-.T ;..XL Y 6.m p ^ 4.f.D T `.*.K P.r.< *.{.4.s.E.S f &.4.J S =.S q X.p < +.:.,.4.",
"y.-.<.=.w 9  .z J =.T <.D.P p 6.g., @..Xh.P g.<.T -..XP Y 6.m F ^ 4.f.D T `.*.F .Xr.x *.{.4.g.Q.S H &.g.Y D &.S q X.S m ;.f.4.!.",
"z.g.~.h.F q  .z I *.=.g.G.T S K.`., =..Xz.P g.<.^ -.XXY Y K.M F ^ 4.f.D P `.*.F XXt.m *.+X4.g.!.S H -.S.Y D *.D : F F I z.].Q.'.",
"v.'..X].G q  .x o.-.-.E..XT S K.`.1 =.P.z.U g.<.^ -.P.Y Y K.M F ^ 4.f.D U  X*.K XXt.m -.+X4.g.!.D H *.S.Y D -.F : H I &.v.}.!.#X",
"x.'..X|.O.q ..S U <.-.Q.P.T S K.g., =.P.z.P g.<.=.-.XXY Y K.m F T 4.f.D P x.*.S XXt.S -.+Xg.g.!.M H *.S.Y L :.G : H Y &.].{.!.#X",
"v.~./.:X=.N ..m U <.-.E..XT p 4.g.1 T L.h.P f.-.T -..XL Y 6.m S T <.f.S P x.! S .Xr.m *.{.4.g.Q.m H ~ S.Y D :.G , H +.-.}.`.S.oX",
"n.~./.:X;.F ..c Y -.-.g..XY p 4.f.; T L.f.L f.-.T ;.L.G J 4.m p P <.s.x L x.! p .Xr.< *.{.<.s.E.m a ~ g.Y D :.G , H +.-.[.`.1.=X",
"B.~.^.:Xu.F +.c Y *.-.g..XY i 3.f.; Y S.u.L 3.&.Y =.'.G K 4.p p P <.t.x L g.! p !.0., T `.<.s.d.m a ^ 4.J D ;.F , H T 3.[.~.g.=X",
"].[.oXoX].c H F U :.;.f.L.Y p ,.-.4 +.2.u.G -.=.I =.u.L Y 9.m e D -.y.< K f.U i g.&.z Y c.:.3.:.m g O.4.J D :.G q D -.g.~.g.~.{.",
"].[.OXoX].c H F P *.=.3.K.Y i ,.*.2 Y 5.y.D *.=.L @.r.L L +.m e D -.y.< K t.U 4 4.=.z L u.-.-.:.w a T 4.H m *.F , D -.g.`.g.g.{.",
"v.[.OXoX%XM H e L &.@.-.S.G 4 *.&.; J ,.=.S =.T A +.=.M D +.w w D &.=., K :.I 4 3.@.> G u.*.*.&.< i U 3.F m &.S q D &.g.g.g.g. X",
"%X[.OXOX&XM F e G &.+.*.4.G 2 *.&.= H ,.@.m @.U B o.@.M D +.w w D =.@., S ;.L i :.+.> F y.&.&.=., i I :.S m &.S - S &.g.g.f.g. X",
"M.[.OXOX=XL F q G @.+.=.4.F 2 &.O.= H *.@.p O.Y B Y @.m D ..w q S O.+., p =.B y :.+.> F q.U O.=.q i I :.d w =.S - F &.h.h.f.f.x.",
"M.[.OX4X:XL F q F +.+.@.3.S 3 &.O.. H *.+.w +.I N o.+.m m ..q r S I +.- p @.M 2 &.I : S @.I U +.q y I ;.p w O.S 8 S =.h.f.:.3.x.",
"M.[.OX4X:XL F q S o.J O.>.p = O.o.. d &.+.q o.F m J +.< m ..r q S I o.- p O.m y &.I : p +.B I o.q y B 7.p 0 O.d = S =.h.f.;.:.x.",
"M.[.OXeX:XP F 8 p I H o.>.i X O.I o p ! .., I B m F J > 0 F q q S I I - p O.m 3 O.J % p +.M A o.- y B &.q q O.w & d =.z.f.-.:.x."
};
