/* XPM */
static char *result[] = {
/* columns rows colors chars-per-pixel */
"64 64 256 2 ",
"   c #050505",
".  c #0A0606",
"X  c #0C0807",
"o  c #050609",
"O  c #0B070A",
"+  c #0C080A",
"@  c #050906",
"#  c #130604",
"$  c #130807",
"%  c #1C0807",
"&  c #140709",
"*  c #14090A",
"=  c #1B080A",
"-  c #1B0607",
";  c #0C0813",
":  c #0E081C",
">  c #090712",
",  c #120914",
"<  c #1B0913",
"1  c #14081B",
"2  c #1A0A1B",
"3  c #170617",
"4  c #230704",
"5  c #240807",
"6  c #2B0807",
"7  c #2B070B",
"8  c #23080A",
"9  c #2B080A",
"0  c #280608",
"q  c #3B0706",
"w  c #350807",
"e  c #3C0807",
"r  c #34070A",
"t  c #3C0708",
"y  c #33080A",
"u  c #3B0809",
"i  c #330506",
"p  c #230913",
"a  c #2C0913",
"s  c #230A1A",
"d  c #2B0A1B",
"f  c #270716",
"g  c #330813",
"h  c #3A0913",
"j  c #330A1C",
"k  c #3C091C",
"l  c #390516",
"z  c #3D1817",
"x  c #0E0725",
"c  c #140824",
"v  c #1C0923",
"b  c #14082B",
"n  c #1A082A",
"m  c #15072A",
"M  c #0E0039",
"N  c #160833",
"B  c #180832",
"V  c #16073C",
"C  c #16083B",
"Z  c #19083C",
"A  c #150734",
"S  c #240B23",
"D  c #2B0A23",
"F  c #240A2C",
"G  c #2B0B2B",
"H  c #2D0723",
"J  c #340922",
"K  c #3E0925",
"L  c #3C0B2A",
"P  c #330B29",
"I  c #2A0A37",
"U  c #370C35",
"Y  c #2E1535",
"T  c #440705",
"R  c #4B0506",
"E  c #420807",
"W  c #4D0807",
"Q  c #430709",
"!  c #4C0709",
"~  c #430809",
"^  c #4B080A",
"/  c #530606",
"(  c #5A0606",
")  c #550807",
"_  c #5A0806",
"`  c #52070A",
"'  c #5C0709",
"]  c #54080B",
"[  c #5C0809",
"{  c #430913",
"}  c #4C0914",
"|  c #43091C",
" . c #4B091C",
".. c #460515",
"X. c #520914",
"o. c #5B0913",
"O. c #58091A",
"+. c #591719",
"@. c #62060A",
"#. c #64080A",
"$. c #6B0909",
"%. c #680706",
"&. c #740807",
"*. c #7C0907",
"=. c #74090A",
"-. c #7C0909",
";. c #790608",
":. c #670916",
">. c #760917",
",. c #6A1616",
"<. c #76171B",
"1. c #4C0A23",
"2. c #450A29",
"3. c #560926",
"4. c #470C38",
"5. c #540C35",
"6. c #52192C",
"7. c #690B25",
"8. c #780A26",
"9. c #700D2F",
"0. c #712A27",
"q. c #5F2018",
"w. c #170842",
"e. c #1A0844",
"r. c #1B094B",
"t. c #180647",
"y. c #1C0954",
"u. c #1C095B",
"i. c #150157",
"p. c #240948",
"a. c #390B45",
"s. c #371545",
"d. c #210A54",
"f. c #22095B",
"g. c #2C194C",
"h. c #1C0963",
"j. c #1D086B",
"k. c #1A0266",
"l. c #1C0576",
"z. c #23096D",
"x. c #250966",
"c. c #230872",
"v. c #280879",
"b. c #32146B",
"n. c #3D2576",
"m. c #3E2250",
"M. c #4B0D48",
"N. c #4E1054",
"B. c #6F0F53",
"V. c #53254B",
"C. c #53126E",
"Z. c #6E1270",
"A. c #4C2873",
"S. c #673071",
"D. c #830909",
"F. c #8C090B",
"G. c #840707",
"H. c #93080A",
"J. c #9B090A",
"K. c #960607",
"L. c #8B0912",
"P. c #870A17",
"I. c #970915",
"U. c #92181C",
"Y. c #A6070C",
"T. c #B6080D",
"R. c #AC0A12",
"E. c #A50918",
"W. c #B80917",
"Q. c #8E0F2A",
"!. c #B31526",
"~. c #AE112E",
"^. c #B92E35",
"/. c #85312D",
"(. c #C60A19",
"). c #D60C1A",
"_. c #DD1219",
"`. c #E2131E",
"'. c #D7172A",
"]. c #CF1026",
"[. c #E71527",
"{. c #F31D2D",
"}. c #EB1A38",
"|. c #F41D36",
" X c #D72335",
".X c #C52533",
"XX c #E42437",
"oX c #F9273A",
"OX c #CA453C",
"+X c #95124B",
"@X c #A0274F",
"#X c #D2154B",
"$X c #DA3244",
"%X c #F93449",
"&X c #F93C59",
"*X c #ED2E4A",
"=X c #B75354",
"-X c #986352",
";X c #CE404F",
":X c #EF4A5B",
">X c #F5526D",
",X c #F36C71",
"<X c #DC5869",
"1X c #EF8275",
"2X c #2B088C",
"3X c #290984",
"4X c #2D0993",
"5X c #2C0597",
"6X c #330A9B",
"7X c #351689",
"8X c #3609AB",
"9X c #3509A7",
"0X c #390AB4",
"qX c #390ABB",
"wX c #2F05A1",
"eX c #721691",
"rX c #573896",
"tX c #50298D",
"yX c #6E318C",
"uX c #4814B0",
"iX c #5534AB",
"pX c #6E32B1",
"aX c #5B1AA9",
"sX c #634894",
"dX c #7051AB",
"fX c #3C0CC6",
"gX c #450EC4",
"hX c #460ECA",
"jX c #4C11CD",
"kX c #4710C9",
"lX c #5112CC",
"zX c #4D12D3",
"xX c #4A13D7",
"cX c #5313D4",
"vX c #5A16DD",
"bX c #5415DB",
"nX c #6918D4",
"mX c #782BC9",
"MX c #5C19EB",
"NX c #5718E4",
"BX c #6519ED",
"VX c #6218E7",
"CX c #6C1AF2",
"ZX c #661AF1",
"AX c #701EF3",
"SX c #6C4ACE",
"DX c #B62BB7",
"FX c #8B6BAA",
"GX c #F26C83",
"HX c #FF5783",
"JX c #843DCF",
"KX c #8473E3",
"LX c #9965CF",
"PX c #F7A28B",
"IX c #AD95EA",
"UX c #E2F8F9",
/* pixels */
"X X X & X X + X + o + @ + o + o + o > > > + > + o o         o   o o     @   X > x A w.y.y.u.h.h.h.j.c.v.v.3X2X4X4X4X6X8X0X0XqXfX",
"& X X X X X + X + + @ @ @ + o > > o o + o o o   o     o o   o .   . X > : b V t.r.y.i.u.h.h.j.c.j.v.3X3X2X2X4X4XwX9X0XqXfXfXfXfX",
"X & & X X X X X + + @ + o + + o X + o o o         o   X     o ; , c B V w.t.r.r.y.y.u.h.h.j.j.c.3X3X2X4X4X9X9X8X0XqXfXfXfXfXNXMX",
"* * X X X X o + @ + + o + o + @ o       @ @ X @ o   O + , 1 c C N V V w.r.t.r.y.u.u.h.j.l.c.3X2X2X4X4X6X9X8X0X0XfXfXfXxXNXxXNXMX",
"* * & X X X X + o X X o @ o @ @ o     o X   X O + 1 c c n B B N V w.w.r.r.y.y.u.j.j.c.l.k.x.u.x.3XwX8X8X0X0XfXfXfXxXxXNXMXMXMXMX",
"% * X X + + X X o o     o @ X . X O X X + * , 1 c c n b b b N C e.w.w.y.y.y.u.u.r.V A x : , - 4 g 8X0X0XqXqXfXkXxXxXNXMXMXMXMXMX",
"X X X X X X o   @ . . . . O . X O + , , 1 1 1 c c c n b B A C V w.t.r.y.u.u.u.u.t.x - i R R ` 3.5.aXfXqXfXfXzXzXNXNXMXMXMXZXZXZX",
"$._ * * @   @ . X X X X X X * ; , , , 1 1 1 1 c c c b B B C Z e.t.r.y.y.u.h.j.j.c.l.N.B.Z.eXmXnXnXcXgXkXkXjXzXbXNXNXMXZXZXZXAXAX",
"T.F.8 & o   o X X X X ; , ; , , , , 1 , 1 1 1 c b n B C C Z w.e.r.r.y.u.f.x.c.c.v.v.6XnXVXvXvXlXhXgXhXjXzXbXbXNXMXMXZXCXAXAXAXAX",
"J.-.9 = X o X + X ; * ; , * , ; , 1 : 1 1 1 v c c b b N C V e.e.r.y.y.f.x.x.c.v.v.2X2X6XwX8X8X0XuXhXjXcXbXNXVXBXZXZXCXCXCXCXCXAX",
"K.*.r = , + ; X + * ; , , , , : : , , 1 1 1 c c n b B N C w.e.r.r.y.y.f.x.v.v.v.3X4X6X6XuXuXgXkXxXzXcXvXvXNXNXVXZXZXAXCXCXCXCXCX",
"J.G.Q 8 , + + + + ; + + + ; , ; , 1 , 1 1 1 c c n n B N V V e.r.d.d.f.x.x.v.v.v.3Xv.r.< rX0XgXkXlXzXcXcXcXvXvXNXNXMXVXVXBXCXCXBX",
"T.K.&.u 3 + + + * + + + ; ; , , , 1 ; 3 1 v c n n n B B C w.e.r.p.d.y.f.f.x.x.v.v.v.x.m rX7X6XgXhXzXzXlXzXcXcXcXvXbXvXvXVXvXvXcX",
"T.T.H.] c , + + + + , + * ; ; , , 3 1 1 1 2 c c b b B B N C Z Z e.e.r.p.f.f.x.v.b.v.3Xc.yXLXb.l.wXuXgXgXgXhXjXjXjXjXjXcXkXgXhXgX",
"(.T.K.[ B d.; X + , * , * ; * , , < 1 2 v c b C x x x c b N N C C V e.r.r.y.f.f.S.b.v.v.z.n.tXdXn.u.k.k.5X5X6X5X5X5X5X6X9X8X8X8X",
").W.J.$.v d.v p = * , * * , 1 1 c B B N V Z V V V C A A x x x b b B B C Z p.e.p.d.d.d.d.x.x.x.rXdXA.sXrXrXtXc.g.n.n.A.7X4X4X2X2X",
"_.(.J.$.F d.s y 8 8 = & O , 1 n B Z V w.w.t.w.V V N b C A b N x : c c c b b B N C w.e.e.e.r.r.i.i.x.A.tXrXrXj.tXdXsXdXiX7Xl.j.l.",
"_.).J.$.F p.d :.o.l a 7 > > > < < s S n B V t.e.V C : > > x b x c : : : : : c c c c c c b x x b N b M M M M y.i.i.i.i.k.j.j.j.c.",
"Y.D.F.=.F p.J *X*XW.D.Q , 3 2 3 p f 8 a f s 2 n B B b c > b x c b c : : ; > > + o + ; > > > : : x x x N C w.t.e.y.u.u.h.j.c.c.c.",
"Y.6 %.*.F I L GXHX|.W.I.L.L.I.I.>.:.X. ...p , < 3 2 2 c c B B b x c : : : ; > o + > > ; ; ; : : x x x N A V V w.y.y.u.u.f.h.x.x.",
"Y.7 @.$.F p...>X>X].W.E.E.E.W.(.(.(.].].W.P.O.l < , = < < < 2 2 v c 1 : ; o + o > o ; ; ; ; 1 1 2 n v n Z f.b.p.F P K K D 1. .1.",
"D.= @.$.F I L :X}.W.:.} o.P.W.).[.}.|.*XoX}.).E.:.% * * * * * * + * ; , , X + & 8 a = * , = = g { h u 4 C.mXmXa.- g ! @.1 !.R.^ ",
"=.= ' o.I U 2.*X*XW.@.X.:.L.W.}.&X>X>XHXGX&X].Y.$.# - # $ % 6 e ^ + 1 * & + * 8 ^ W y ^ u $ & X $ % 5 E O.:.~ 6 i T =.Q.x .X*XY.",
"$., ! ' G U | E.[.].I.L.L.P.L.(.,XPX}.,XPX'.E.-.&.U.^.^.^..X.X$X$Xg < = k ..8 & U..X-.$.$.8 O 4 T ) [ #.[ W u ~ ) L.(.^.3 ~.HX>X",
"$.< T ] H 2.| >.I.W.I.;.>.=.=.G..X,X`.:X>XR.=.@.$.%X1X>XoXoXoX%X<XX.% * eX+XK.%.=XGX).H.D.L.E.&X<X*X<X&X(.F.-.-.G.R.<X;X= !.&XGX",
"=.p t Q H 4. .@.=.I.I.D.=.=.$.J. X!. X X X(.&.( @.XX>X:X{.[._.{.1X:.Q u B.Q.Y.K.=X,XR.Y.Y.R.W.$XPX}.,X XY.F.&.=.&.G.$X$X< !.&X&X",
"-.8 t g S 2.| [ @.$.( Q u W =.R.Y.;.%.&.*.R.*.( _ XX:XoX{.`._.'.$X>.>.>.%.*.K.K.U.'.J.K.J.K.K. X>X$X>XoXK.=.&.$.&.K.T.U.f !.}.~.",
"@.< u y H K k O.' W % 0 6 5 ) F.D.) _ ) / &.-.#.%.XX%XoX{.`._.{.].[ W ^ #.&.K.K.[ W.J.G.H.G.F.W.E.E.I.I.F._ =.-.-.J.Y.;.3 E.(.R.",
"} = 6 g j K l ` [ ` 7 7 i i 6 W =.) [ ) W _ &.@._ R.(.T.Y.J.F.H.#.~ 6 r &.&.G.H.[ F.H.D.$.T #.&.%.$.( @.=.@.) =.G.H.H.;.3 I.W.R.",
"^ = 9 h J J l O./ ^ 7 7 8 9 9 r Q W W W W ..o.$._ G.K.J.*.#.W W ~ ~ r w ;.%.&.F.[ -.F.-.) R ( [ O.t R R @.@._ [ G.G.G.%.* P.T.R.",
"^ < y u j J d O.OX,.< 2.7.] = 8 8 = r ^ T ^.<.( ) ~ X.$.D.$.^ ^ u  .N.0.U.,.%.*._ -.D.$.u ~ Q l a.d +./.l } o.@.D.F.G.>.; P.R.J.",
"@.a 9 g J J f . -X,.s f <.q.$ = = = = 7 7 0.+.{ 9 = * a #.^ e ^ w 9 8 | 0.,.( -.i T %.^ u r 6 G b.8 z 6.x.2./ @.%.$.>.t : >.K.L.",
"$.g 6 g J J p = l # G U h y $ = = % * * & r p = = p * + O   X W ^ % $   . i %.;.8 b.V.% w w 5 8 tXA.i 7 ; d 6.0.yXA.] a 1 <.I.F.",
"@.g 6 l J D p < g % O O & = X * & * , * X + * * % * * + o X * $.=.9 5.sXFX>./ ( 9 uXtX. 8 8 5 d 9XtX=X0.- l dXUXKX6X{ s ; 2.Q.>.",
"X.g 0 g 2.f p = f 9 8   = u u w r r y y = o p a Q.+X~.+Xp a a a a k B.JXIX=XyX4.8 uX7X% = = $ 2 pXpXS.y - | S.IXKXiXS < + O k 1.",
"^ a 5 g 2.d p 8 a 5 % @ * 8 = 8 9 9 8 = * X * = ~.#X#X+Xs 9 p p p d Q.pXpX^ JXS.  I v = = * $ * Y g.U a 5 - m.KXsXg.b : o       ",
"^ h = g J = 7 u u { a X * X X $ $ $ * $ 8 9 = = +X#X#X+X< = p p s S 9.FXIXS.FXN.v O $ 7 9 8 8 8 @ $ = d Y M.yXSXiXy.1 c F S S I ",
"[ h % g a X 9 =.*.D.F.;.-.*.&.$.=.=.$.@.#.$.#.#.-.=.>.7.< & * < , 1 c Y m.v . . ; X $ & = p * X X = * * D Z.eX7XaXN.Y s.s.Y s.S ",
"$.h 5 9 % o y ;.&.&.*.D.D.-.-.*.=.&.$.$.#.@._ _ ] W T ] L 0 7 7 9 =   o 0 . . # = & & * < p = X X = * $ d N.Z.+XDXY         X   ",
":.l = 8 $ @ i *.*.F.D.D.D.D.-.*.=.&.&.$.$.#.@._ _ [ W $.7.J P L  .u & p 7 X   # = * X X * * X   @ = * * p M.Z.Z.DXB.          @ ",
"J 9 = % $ o w G.D.D.D.D.D.D.D.*.&.=.&.$.$.$.#.[ ' _ ) @.* , g g u u 8 ^ t } } 8 X & X & < * ; 3 + 8 = * < L B.B.Z.s.B 1         ",
"8 = & * $ o i *.-.D.D.D.D.D.D.*.=.*.&.$.$.#.#.#.[ [ _ ) * = % 4 6 % = = = 8 X.O.< o o * 2 d d d f l * $ < L M.G r.d.x.e.        ",
"~ 8 * % $ @ 6 *.*.*.D.D.*.G.D.*.*.&.&.$.%.#.#.%.[ [ _ W $ $ 5 y y 8 = 8 8 u ^ O.3.0 8 h  .1.H P j g & $ < 2.4.2 b.g.u.Z         ",
"@.9 $ $ * @ 8 &.*.D.D.D.G.*.*.*.=.=.&.$.$.#.%.#.@.[ _ W $ * 8 9 % 5 5 = = h ,.,.X.Q.>.Q.:.I.P.P.:.8 = * = < < + F p.e.b         ",
"_ 9 $ X $   5 $.&.*.D.D.-.-.-.*.&.&.&.$.$.$.#.#.' ' [ W $ % = r 6 % 5 % y g ,.8.Q.P.>.E.P.E.;.@.P.u * X & . X X # = s 1         ",
"_ 8 X X X @ % $.$.=.&.&.*.*.*.*.&.&.$.$.%.#.%._ ' ' _ / % * $ 0 w 9 8 8 9 9 X.Q.+X9.3.Q.1.9.9.{ h % . .   X X X o   .           ",
"[ = . . .   $ @.$.=.&.&.=.=.&.*.*.&.$.$.#.#.[ _ _ _ ] W 5 . $ % e u 9 6 9 8 z <.4.a.N.C.a.a.N.S L Y F G 2 > * $                 ",
"[ -   X . . $ 6 w e ^ [ $.$.&.&.&.$.%.%.#.%.[ _ [ _ _ ) 8 . % 8 9 w 8 8 9 g o.>.5.v F N.N.N.C.F F G S F U F S s &               ",
"_ $ X $ * $ * * $ * $ = 8 r ^ [ #.$.$.@.[ [ _ _ _ ) ( W 5 o % y 9 9 9 9 7 ^ #.<.5.D D G D S M.4.4.4.D , Y U I U S * X .         ",
"Q % * % * & % % = 5 = % % = % % 9 e ) #.#._ _ ] ] _ ` W 6 . $ 5 6 5 9 8 8 9 ^ >.2.P 5.4.2 < j D s P U S S 2 2 , I a.G 3         ",
"y = 8 8 = 8 8 5 % = = 8 5 5 5 5 % $ % y / _ / ] ] ] ) ^ 6 X % = w 9 y 9 8 y ^ ,.d < < 6.L j j K 2 s 6.U U 4.U ; 2 s v ,         ",
"u 9 8 8 9 7 9 5 5 5 6 i 6 y u u 9 5 % * $ u W W W W ) T 6 o * = 8 9 8 8 = 7 E a j < < | L 2.4.G * < 2 2 3 , s d p < < = .       ",
"u 8 5 8 9 5 8 6 w ~ ~ u e ~ ~ y 5 6 8 8 = $ y Q ^ W W ^ 9 X % 9 % 5 8 % = 5 h d * + < , , X , D S s 2 2 p + d K j l K k o   o o ",
"8 8 = = 5 % 6 r ~ E u w e 9 6 6 9 9 6 5 % * % 6 q Q Q ^ 6 o $ 5 9 = = $ % 8 8 d s p < < p , 3 P P P 2.4.s + = < * = = < 8 8 $ - ",
"& * = % $ 8 r ~ E e e e 6 y e y 9 6 6 8 8 = * 8 0 6 q u -   X # 5 8 8 $ * = * , 2 j L P p , < < < < < p p = * = 8 = X * O.O.u r ",
"= * % % 5 w E T E Q e r w w e y 5 9 9 8 8 = $ = X   O = o . .   X $ X X . . X * * , < d * X < < < * @ < 1. .| h f k a * 8 8 = = ",
"% % % 8 u Q W T Q e w r e u i 6 9 9 9 9 8 = * = $ . . + & * $ o . * = @ @ = * = = X p 3.5.k f 2 g a , s g a f | O.| * o * 8 = = ",
"* = 5 r ^ W Q T ~ e w u u w u u r 9 9 8 8 = * 8 = X + * & & % * *  .9.1.s p 9 a * , 1. .J | 7.5.2.a X = 3 < = , < < < = & * = < ",
"* i ~ ^ ^ Q E u u u e e u u ~ u y 9 9 9 8 * % a * X X & $ & # = o.O.L 7.8.5.7.} = < f < * , 8 k < @ X p g f d = X + 2.1.j a < , ",
"6 E W W Q E E e u e e w e e E u y 9 9 8 = % * 9 $ X X $ $ * = * 8 8 * p :.:.< @ & 7 g g k = + +  .} < + * & * X X s 1.1.2. .3.L ",
"u E E E T u u u E e w u E ~ u r y y 7 8 % * 8 8 $ $ + $ * = - % a 8 < X X a 9 $ $ 7 a 8 = $ X p 1.3.7.O.k d O. ., , p = * , p | ",
"^ Q Q T e E E E e e u E E ~ u w y 7 8 8 * = h = * + $ * % = 5 8 9 a X o * 7.P.} 3 3 = % , , < 7.8. .k O.8.3.2.8 $ X < < < , X X ",
"E E e u u u e E e ~ ~ ^ E u y y y 8 = % = h 8 & * $ = % 8 5 5 9 y g o 9 :.7.9.I.E.7.>.U.U.j * p p s * * } >...X o * g a < a p X ",
"e u u u ~ ~ ~ u u ~ Q ~ ~ i 9 9 8 = = * a y & % % * % 8 5 0 9 9 y ^ 8 O.I.P.O.>.W.!.Q.9.h % 9 X.{  .J j * < p * X $ 8 a 8 f = X "
};
