/* XPM */
static char *result[] = {
/* columns rows colors chars-per-pixel */
"64 64 256 2 ",
"   c #050504",
".  c #0B0606",
"X  c #0C0806",
"o  c #0D080A",
"O  c #090807",
"+  c #120706",
"@  c #1A0706",
"#  c #130807",
"$  c #1B0807",
"%  c #130609",
"&  c #14080A",
"*  c #1C080A",
"=  c #1D0609",
"-  c #1C0912",
";  c #180817",
":  c #0C0818",
">  c #24070A",
",  c #2A070B",
"<  c #23080A",
"1  c #2B080A",
"2  c #270806",
"3  c #33080B",
"4  c #3B080C",
"5  c #360709",
"6  c #240913",
"7  c #2C0914",
"8  c #24091B",
"9  c #2B081B",
"0  c #290517",
"q  c #330813",
"w  c #3B0913",
"e  c #34091C",
"r  c #3B091B",
"t  c #370616",
"y  c #16082C",
"u  c #2C0824",
"i  c #290827",
"p  c #330823",
"a  c #3B0824",
"s  c #33082A",
"d  c #3B082B",
"f  c #390626",
"g  c #250833",
"h  c #390837",
"j  c #22102B",
"k  c #44080C",
"l  c #4C080D",
"z  c #47060A",
"x  c #54080C",
"c  c #5C080D",
"v  c #57070B",
"b  c #430813",
"n  c #4B0813",
"m  c #4D091C",
"M  c #450718",
"N  c #530813",
"B  c #5C0914",
"V  c #54091C",
"C  c #5B081B",
"Z  c #570615",
"A  c #54161E",
"S  c #64080D",
"D  c #6C080D",
"F  c #68060A",
"G  c #73080D",
"H  c #7B090D",
"J  c #77040A",
"K  c #620913",
"L  c #6C0913",
"P  c #63091B",
"I  c #6D091B",
"U  c #660716",
"Y  c #730914",
"T  c #7B0914",
"R  c #740A1C",
"E  c #7C0A1B",
"W  c #770619",
"Q  c #671118",
"!  c #430923",
"~  c #4A0923",
"^  c #44092B",
"/  c #4C092B",
"(  c #4C0425",
")  c #580927",
"_  c #420833",
"`  c #480839",
"'  c #560935",
"]  c #58133C",
"[  c #670927",
"{  c #7A0927",
"}  c #7C1524",
"|  c #670A38",
" . c #720A35",
".. c #7A0A37",
"X. c #6F142D",
"o. c #3B0945",
"O. c #280759",
"+. c #370957",
"@. c #300F49",
"#. c #390969",
"$. c #3B0878",
"%. c #2E0C67",
"&. c #480946",
"*. c #570947",
"=. c #480957",
"-. c #530F57",
";. c #690A47",
":. c #770B45",
">. c #6A0A58",
",. c #760A59",
"<. c #6E144E",
"1. c #490969",
"2. c #570A67",
"3. c #470A77",
"4. c #580E74",
"5. c #670964",
"6. c #7B0B66",
"7. c #780B79",
"8. c #731275",
"9. c #502971",
"0. c #672E69",
"q. c #8C090D",
"w. c #84080D",
"e. c #98080D",
"r. c #830914",
"t. c #8C0913",
"y. c #840A1B",
"u. c #8A081B",
"i. c #940914",
"p. c #9A0812",
"a. c #9B091C",
"s. c #93091C",
"d. c #82111F",
"f. c #A30A1B",
"g. c #A80918",
"h. c #B30915",
"j. c #BC0B1C",
"k. c #B4081A",
"l. c #AB0811",
"z. c #890A27",
"x. c #940A24",
"c. c #9A0A27",
"v. c #860B38",
"b. c #970C38",
"n. c #971439",
"m. c #891531",
"M. c #A80C26",
"N. c #B30B24",
"B. c #BB0B24",
"V. c #B90A2A",
"C. c #AA1229",
"Z. c #BA132C",
"A. c #A60C36",
"S. c #BB0D34",
"D. c #A71337",
"F. c #B81438",
"G. c #BD2234",
"H. c #C70A1C",
"J. c #D40A1D",
"K. c #DA0A1C",
"L. c #D2121E",
"P. c #C70C27",
"I. c #D70D27",
"U. c #D6142B",
"Y. c #C80C33",
"T. c #D70E34",
"R. c #C61738",
"E. c #D81739",
"W. c #C71226",
"Q. c #E30C25",
"!. c #E71438",
"~. c #F01631",
"^. c #D7283C",
"/. c #E62131",
"(. c #880B46",
"). c #970C46",
"_. c #8F0F53",
"`. c #A50D48",
"'. c #B81648",
"]. c #AD1450",
"[. c #8F2756",
"{. c #880C75",
"}. c #8D116D",
"|. c #B0186A",
" X c #912973",
".X c #BA2A62",
"XX c #C81946",
"oX c #D91B45",
"OX c #CA1750",
"+X c #F51B45",
"@X c #E8184C",
"#X c #D6254A",
"$X c #D72458",
"%X c #CA2856",
"&X c #E5254A",
"*X c #E82757",
"=X c #F92657",
"-X c #F1324D",
";X c #CB176E",
":X c #D92468",
">X c #D53370",
",X c #EB2766",
"<X c #F52868",
"1X c #FB2A77",
"2X c #F03175",
"3X c #E4196F",
"4X c #B04871",
"5X c #CD5057",
"6X c #F44553",
"7X c #FB4B74",
"8X c #F36E76",
"9X c #D54978",
"0X c #460B89",
"qX c #4F0E8F",
"wX c #700E8F",
"eX c #4D10A8",
"rX c #7613AC",
"tX c #7929AC",
"yX c #602A94",
"uX c #5C1CCE",
"iX c #370B85",
"pX c #930F8B",
"aX c #B41592",
"sX c #912B92",
"dX c #B4318D",
"fX c #9215AB",
"gX c #9129B1",
"hX c #AD2CB6",
"jX c #CA1596",
"kX c #DB1FA8",
"lX c #B54EAB",
"zX c #995998",
"xX c #D34E8C",
"cX c #F44F8F",
"vX c #F36E8F",
"bX c #DB48A8",
"nX c #A815CE",
"mX c #B42CD0",
"MX c #892AD3",
"NX c #DA18CE",
"BX c #E617D6",
"VX c #E82DCE",
"CX c #EE1CE8",
"ZX c #D92EE6",
"AX c #F825F8",
"SX c #EC30E9",
"DX c #CD26D2",
"FX c #A861D3",
"GX c #E846D8",
"HX c #F74EF9",
"JX c #DA60DA",
"KX c #F78E91",
"LX c #DE888A",
"PX c #B691E0",
"IX c #DA97EC",
"UX c #FFDEE6",
/* pixels */
"s s i i 0 - 0 , p.p.3 , , w 5 4 l K q.H./.6X-XL.q.v k 5 3 1 3 1 < 1 1 1 < 1 1 1 1 k Y e.w.4 4 z x v F D H D t.p.c.t.q.q.H G S L ",
">.,.,.6.}.,.;.` W s.x 3 3 l 4 l S H h.~.6X8X8X6XL.q.v k 4 3 1 1 1 < < 2 1 1 2 3 1 k Y e.q.k k l v v S G x v H w.u.D G G G F T b.",
"&.&.*.*.>.,.}.' 9 s / f f m M N L q.h.Q.-X8X8X6X/.h.H v k 5 3 2 1 < 1 1 2 1 3 5 1 z T e.q.z k l v S G x 4 F T E Y c S S c v z.b.",
"_ _ _ _ ` ' | ` 0 s h o.o.h h h _ ( C { C.R.^./.L.l.q.S l k 5 3 1 2 2 1 1 1 2 5 3 z T e.i.x v v S S v 5 v R b.c c c v v x l [ z.",
"g g i i f d ) ( 8 s +.+.+.o.&.o.h h s i 9 0 q w l k b 4 4 3 3 3 1 3 1 3 5 3 5 4 4 l T l.e.x v c 4 3 k x U b.P l x x x x N k P { ",
"=.-.&.&.&.` ` ^ 6 i 0X0X1.=.1.2.1.+.o.h s r e t 3 4 3 q , 1 < * < * * * 2 2 2 1 1 n r.p.g.k 5 S 7 N L B { [ l n l l Z S l b P v.",
"pX{.jXNXNXNXBX{.= h eX0X3.3.4.pXfXrXwX5.*.^ M r w q w 3 1 1 < < * * * * * * 2 2 2 n y.e.h.x x L q I C n N N n n n M L a.v.[ ) b.",
"BXaXaXjXNXNXBXjX0 @.eXqX3.;.;.2.pXaXpXpX5.>.*./ A b 4 4 4 3 1 2 2 < < 1 1 1 1 3 1 n y.p.h.x B m e ! p r M a ! M M M S A.`...[ v.",
"AXCXkXNXBXBXAXkXM.o.eXeXiX;.S 3 2 * > 7 7 d =.2.-.=.&.` / ) m C Q T Y L Z n x F J z.W p.g.c 0 u f s f p f f d o._ r ) ..(.). .(.",
"AXAXAXCXCXAXAXBXI.(.uXeXeXiX' b q > 6 < , 7 ` 3.3.3.2.=.=.&.&.` ` ) ) ) C U U T g.M.W i.l.N s ` d s h h _ ,.` &.}.[ ..|  .v. .v.",
"NXNXNXBXBXAXHXVX!.`.uXeX0X$.2.( 3 6 < = 6 q a =.1.1.1.=.=.&.&.h _ ^ ~ ~ V C W r.g.c.[ i.F r ^ d d s h h *.,.*.}.{.| v. .(.| ) (.",
"+.#.=.=.&.5.ZXGXoX3XuX0X$.#.3.2.4 q 7 0 q q p &.1.1.1.1.&.&.` _ ^ ^ ~ m V U T p.j.N.W q.5 m ( 9 0 r ( r / ..(.{.{...).`.(.' ( e ",
"%.O.O.O.O.@.=.gX&.|.uXqXO.@.O.wX,.z t 0 7 7 0 ;.dX5.1.&.&.h h ^ ^ ! ~ V C Y u.g.H.P.W r.c V ! 9 e  .| ( [ (.6.wX7.(.].).' ^ u 8 ",
"#.%.%.%.O.O.O.$.h +.eX0X=.0 i 4.nX(.F , > 7 1 ' [.5.=.o.h h d d d ~ ~ V P y.g.H.Q.T.z.W S ) / p ;.(.' (._.8.7.pXpX). .f 9 6 8 8 ",
"#.$.#.#.$.#.%.qXg =.eX$.FXzX+ 5.ZXNXB.l - < > 9 h o.o.o.h h s f ! ~ m V P W B.T.!.Y.{ r.S V ' ^ | ' ,.6.{.{.7.pX>.M ; : o o O O ",
"O.O.O.O.O.O.O.$.j o.eX$.O.PXzX7.AXAXkXG - - = 6 9 i p s p p e e r r m B I ) P.~.~.@X{ W L ) | ) ,.}.6.,.,.{.>._ & . ; o . o O O ",
"gXfXrXwXwXwX#.4.i =.eX0XO.+.zXgXSXAXAX|.= - 8 i u u p p e e e e r t M N P [ T.+X<X>Xz.T U V ,.>.;.}._.,.*.&.; j - X j ; X o o o ",
"GXSXCXSXVXVXVXbXs o.qXqX#.+.g fXZXZXAXDXf 0 s s s p p p p e e t t t M m P { !.+XcXvXE E I V {.4.*.6.{.&.j : : j r   : : O O O o ",
"o.` &.=. X4X>X4X( ' gXMX3.3.#.fXSXSXSXpX>.*.d d d d a p e r r r r b b x Z x.Q.+X7XKXy.y.I C 6.4.>.=.i : : : y y # 2 ) ~ 3 A s j ",
"@.o.h g [.vX9X>XM [.9.#.#.+.O.wXHXHXSX4.&.*.b 6 6 6 7 q q t w N c J W T N.c.T.+X+XxXy.y.U B wX4.j j +.g j y %.%. XbX1XZ.P [ / s ",
"-.-.-.&.<.>X2X:X! ~ #.$.$.#.#.0XrXGXHX X*.*./ > * - 8 9 6 9 6 1 3 k X.N.+XM.T.~.1XxXr.y.P &.@.: o y @.9.9.yXZXJXAXkX3XXXQ } #   ",
"mXDXhXmXmXhXVXkX{ z.2.$.$.$.$.1.yX3.JXJX6.5.*.9 & * ; ; - > 7 3 l J F N.!.b.I.!.=XoXW W b - j y : o : g : @.eXwX;X@XS.A.[ K 7 6 ",
"<.;X[.,.6.0.1.[.Y.@X%XxX9X].z.{.gXtXtX XfXnXwXu.w.} } m.m.m.H C.5X5X5Xj.!.z.P.!.!.P.W E 4 - %.] A [ b. .; <.[.f ;XoXN...' ^ ! p ",
"&.(.:.<.^ &.&.).Z.W.<X*X2X*XP.}.eXqX$.}.jXnXpX8X6XQ./.+XvXKXH.Q.KXKXvXj.+Xv.Y.!.Q.S.].x.w s @...N.!.=XB.M ].%XM 1Xb.R I { c.z.C ",
"5.]._.*.h *.;.| g.Y.@XB.N.T.P._.0.xXxX4XpXrXwX5X-XJ.L.K.-XvXh.U.^.-X%XB.+Xv.R.U.T.Y.b.z.3 X.<.p F C.%X} m D.`...<X) v.|.jX3X'.).",
"JXcXjXdX{.}.sX XM.k.N.f.f.c.f.].zXbXbXaXdXtX].W.U.W.W.L.&X^.h.L.h.l.l.B.+X..P.T.P.c.z.d.q A ' e B c m.m.m.'.n.`.:Xb :XkXNXaX`.(.",
"PX>XjXGXGXIXIXJXOX'.`.A.C.v.y.v.,.;.7.gX[.bX*XJ S S S G H q.h.H.h.j.C.Z.+Xv.P.N.G F m.R w * d.x.5 S.F.n.%X'.(.:X`.7 `.:.*.5.5.5.",
"q p A U.R.%X>X].5X:XnXmXdXgXv.dXlX4XlXlX..gX;XJ c S S F D H f.i.J i.9Xb.b.x.M.c.G E z.} 2 -.hX4X8.7.pXVXaX.X].3Xb.b { ~ |.jXrXjX",
"_.:.) z.{ ..{ ;.*.f wXgXgXFXlXUXIXIXIXPXdXIXPXlX4X4 S H H < & 3 l C ).(.{ .. .{ u.x.z.} < -.uXuXJXfXMXHXaX3X[.cX:X).'.X.1X2XpXkX",
"8.-.s s d _ ' ;.| ! rX4.tXuX4.PXPXuXtXFX8.lXsXmX8.1 Y q.f.S * X n { `.:.N ) ) R c.x.E Q 1 @.9.9.0.+.wXVX8..X_.1X%X'.).].=X).).1X",
"o.o.s a d ^ ' :.d ) <.] ].8.y @.0.) Z s X.x i j 7 3 L w.q.w.4 o X X 6 < X @ @ < q N E B < * &     o R !.r XX*X*X'.%Xm.<X*Xw &X<X",
"i s j 8 9 p / ) M e p t C.V e V w z w t b w & 6 G g.f.e.w.2 < o X & & X # o . X   3 Y x * *   X X O E F.} x.%XXXOX:Xn.XX,XD.=XZ.",
"[ ..v.v... .| A - : u 8 6 - 7 4 b B t q C 3 o * S k.H.l.c o & o o & & X X X X X   > L l = & .   . X L D.!.1 F.G.2X$X,Xb.OX=X=XC.",
"a  .:.| :.(.| a - o - ; - & w b k c b e K w 8 e V E r.K N , - & & & & X X X X X   < Y x < % .   X & 1 N C 3 d.`.<X,X<X$X<X&X=X=X",
"; f s u u ! M a - # ; - & o q b b B 4 > N 3 [ F.C.C.D.M.C.x.v.X & 8 * X X . . .   > G x = @   X X # # X . & o 1 M A [ ,Xm.XX*X@X",
"8 e e e 9 9 e r - - & - & & 7 3 w c 1 6 e n { x.v.].n.`.`.(._./ a p - X X . . .   > D z = & X   X # @ # % X % . O   X $ + ,XD.x ",
"- 7 M e 8 6 7 7 1 w o - - o 1 w 4 v | <.| (.].b.oX:XXX*X$Xc.'.b.| / & X . . . .   > U l $ o .   X o X X X X + o # o o O w 1XR   ",
"- 0 > 7 * - 8 > 6 6 o & & o * < 3 l  .;.:._.| ..)... .).(.| (.).| ..6 . . . . .   , c k = % . . & @ X   . + X X X o o O A 1Xw k ",
"s 8 i u ; - & q - - & & * & * * 1 1 n { v.)  .).).| ).].).| ).`...| 0 . . .   .   > S k $ #     < 5 k z 3 < . . . . & O X.$X+ Y ",
"h _ h h _ ] *.*.7 6 & & < & b T L i.j.B.f.C.R.XXA.C.R.XXb.z.A.A.v.) q   . .   .   , c 4 $ # .   x S v l l 3 $ @ . X &   m.`.  l ",
"] ! ^ /  .' /  .M % % & - . N j.^.#X&XZ.W.E.&XE.B.&X&X&XS.C.XXOX`.) q X . .       , c 4 = #     l S x 2 3 k S l 2 $ < # Q A % & ",
"* & & - = & = % % +   % > 3 r.I.U.U.k.Z.&X*X-XR.R.&XoX$XC.C.Z.A.c.X.7 X . . . .   > S z = + .   1 5 c s.r.x 1 * 1 < * < = * = & ",
"& = b V V M > > 3 C y.W x.R.-X$X*XR.N.E.E.oXR.Z.XX&X#X#XM.x.S.'.'.F.w   . .   .   > c k @ % .   d.C.T T S D z 4 1 3 n 3 < * * & ",
") z.b.b.A. .v.`.`.OXM.W x.c.V.S.D.A.%X2X2XcX$XY.!.E.oX#XR.A.oXXXR.F.b X .   . .   , c 5 @ . . . C.W.C.D x Y G c G S 3 3 < = $ & ",
"P v. .( [ b.].].'.).*.b.`._.'.XXA.E.oX&X&X&X#X&XvXvXvXcX#XZ.R.N.M.c.M   o X .     > c 5 @ X   . 5 v D x k 2 3 e.e.x l 1 * < < @ ",
" .) ^ ( ~ ) [ [ [ ) `.;X;X1X1XF.Z.oXE.oX*X*XE.-X6X*X$X$XE.B.#X*X@X@Xz.  X     .   @ l 5 @ +   . $ 2 c 4 4 S z $ + # < % # X X X ",
"&.! ) ' ' ..z.| [ z.z.c.b.V.Z.C.,X7XcX7X7XZ.g.U.J.U.^.W.V.u.F.R.).b.P . X .       = z 5 @ X . . # # # k F z 5 3 @ X @ @ @ X # + ",
"| `.'.'.].v.t N W T W M.f.x.x.F.#X#XG.#X#XZ.C.R.R.S.R.E.m.n L D N T l o X .   .   = l 3 % X   . # $ # 2 2 X + @ X X + @ @ < < < ",
"{ ' ` v...] | y.z.v.b.F.C.R T i.q.j.j.t.i.G y.E.+X@X+XT.Y b x l k n 4 * .         < z 1 $ X     2 x 3   . X = @ + + +     < 2 * ",
"C V 7 w , w c.Y.Y.T.Y.{ , b Y T Y u.u.L U C u.M.x.C R a.d.b P c.x.[ [ <     X     < z 2 # . . # 4 3 1 2 + . . + X . . + @ X . . ",
"M r r f [ c.z.[ ) c.s.R ) L T z.{ z.P.W.K z c c c t.t.x B n 4 z.N.P.H.b 1 < & &   @ 5 2 @ X $ 3 < . # @ X . X @ > @ @ 1 2 +     ",
"{ t > 7 w q n B M w n = N N.T.I.U.T.x.4 4 w.p.q.r.g.r.l n 4 n k.B.c.[ y.f.G < * , v w.H l < X X . # @ # + + + . . @ 1 > $ & = @ ",
"4 n N K b W y.y.C N n n u.V.S.V.U.U.I.R 3 1 5 4 k 5 l Y L n 4 k 5 3 3 k 4 1 4 < l w.q.q.x < . # # # $ < # + X .   % 2 , + X + X ",
"= 4 4 b 3 n b , q 4 M y.f.u.I w U i.L N I g.j.M.z.{ P.I.f.3 3 x D x Y p.r.l k N   k l.e.v 2 2 # X . . X   . . X @ + . . .   . X ",
", > q > 4 Y a.f.N q 1 4 4 k L H v 4 L 5 4 a.N.P.I.I.P.[ @ o x G H v S T L 3 < < # I e.w.l < < # . @ 1 1 $ + * 1 3 @   . X . @ X ",
"k.f.x.z.M.P.a.K 4 z J H G i.f.f.y.N T 4 4 E M.Z.B.Y.P.P.k.N * $ < < < > $ 4 K x V < # # o $ @ X . . 2 2 2 < 1 2 = X     . . . . ",
"j.H.H.P.z.M = % S T H Y c i.i.c b x 3 m B.Q.H.M.C C a.j.s.P b N G H y.P m M.J.J.B # 2 k c k * * $ +     + > 1 1 @ = < @ X       ",
"k.k.B.N.N.U > < * < > 3 3 , 3 B x l N b w 3 < 3 1 2 3 3 3 1 1 u.Q.Q.H.a.f.k.f.K < & x H G v 3 < = # .   @ 2 2 @ + = < @ @     . ",
"P a.H.H.g.y.> , 4 l N C 3 E H.Q.I.R < < 3 l D v t.g.G l N T 1 $ k K u.I.J.J.a.Z < # < 4 v c z $ # X .   = 3 , = . . .   .   .   ",
"> 5 l 3 % q u.j.J.K.M.c.x.B.P.i.c $ k S w.i.x t.r.r.i.L w r.3 @ k s.k.f.p.x.a.k.h.r.< o # o X o + X . . . . .           . . .   ",
"4 3 k 3 = > t.P.k.j.P.H.I.M.W > $ < t.t.i.w.x G g.g.G 3 B l # b J.Q.J.f.I n a.H.J.f.B 4 > 1 z D x < 1 2 .   . . . X % % . . . . ",
"3 1 T z % @ , N a.H.J.J.j.s.c 3 < < 3 v S v c k c k 4 < * % 1 P T T S n w @ < 1 4 * & < m g.K.J.h.k 5 1 .   . .   X @ + . .   . ",
"3 l c @ 4 W k.k.f.M.a.N.j.H.Q.r.= < < * * # * < $ = k G v c n $ @ X # # @ 3 2 < 2 3 l 2 $ k f.j.j.K < < X   . X . . . . @ +   . ",
"N 4 % l H.I.H.H.x.[ z.P.I.I.P.z.3 $ < 1 3 3 C 4 3 a.J.Q.I.s.< $ $ < 2 k x c p.q.c 3 l S 1 # = 5 n r.4 $ @ .   . . .   . . .   . "
};
