/* XPM */
static char *result[] = {
/* columns rows colors chars-per-pixel */
"64 64 256 2 ",
"   c #030403",
".  c #0B0605",
"X  c #0D0807",
"o  c #05050A",
"O  c #0B070A",
"+  c #0C080A",
"@  c #040807",
"#  c #130605",
"$  c #1A0505",
"%  c #130806",
"&  c #1B0906",
"*  c #13060B",
"=  c #13080B",
"-  c #1B090B",
";  c #1A0709",
":  c #0B0613",
">  c #0D0913",
",  c #0D0A1B",
"<  c #090519",
"1  c #140913",
"2  c #1B0913",
"3  c #13041C",
"4  c #140A1C",
"5  c #1C0A1B",
"6  c #180616",
"7  c #16121A",
"8  c #24090A",
"9  c #2C090A",
"0  c #270707",
"q  c #3D0807",
"w  c #340909",
"e  c #3B090A",
"r  c #3A0709",
"t  c #230914",
"y  c #2C0A14",
"u  c #240A1B",
"i  c #2B091B",
"p  c #260516",
"a  c #330A13",
"s  c #3B0914",
"d  c #340A1C",
"f  c #3A091A",
"g  c #301412",
"h  c #0B0827",
"j  c #130523",
"k  c #140A23",
"l  c #1B0A24",
"z  c #15032B",
"x  c #150A2B",
"c  c #1C0A2C",
"v  c #190629",
"b  c #1C1526",
"n  c #150B33",
"m  c #1C0A34",
"M  c #1C0A3C",
"N  c #170538",
"B  c #1B1239",
"V  c #0C0B30",
"C  c #240B23",
"Z  c #2C0A23",
"A  c #230A2C",
"S  c #2D092B",
"D  c #26052B",
"F  c #330B24",
"G  c #3B0B22",
"H  c #330A2B",
"J  c #3B0A2C",
"K  c #3C042A",
"L  c #291429",
"P  c #36162B",
"I  c #220934",
"U  c #240A3C",
"Y  c #2B0B37",
"T  c #390C36",
"R  c #281636",
"E  c #391538",
"W  c #2D2F2A",
"Q  c #43090B",
"!  c #4C080B",
"~  c #470707",
"^  c #54080B",
"/  c #5C080B",
"(  c #590507",
")  c #4D0813",
"_  c #460A18",
"`  c #570917",
"'  c #4B1316",
"]  c #5B1618",
"[  c #63080B",
"{  c #680708",
"}  c #75090D",
"|  c #7C090B",
" . c #770608",
".. c #660A16",
"X. c #740915",
"o. c #75171A",
"O. c #430B2D",
"+. c #460B25",
"@. c #570A28",
"#. c #480B36",
"$. c #560C37",
"%. c #461438",
"&. c #52162F",
"*. c #680A28",
"=. c #780C27",
"-. c #680A34",
";. c #6E1231",
":. c #6F2929",
">. c #5A2823",
",. c #4E4635",
"<. c #1D0A42",
"1. c #180746",
"2. c #1B0F50",
"3. c #230A42",
"4. c #2B0A44",
"5. c #26094A",
"6. c #360C48",
"7. c #271647",
"8. c #391447",
"9. c #2B0C55",
"0. c #290C5B",
"q. c #340B53",
"w. c #380C57",
"e. c #2A1556",
"r. c #391457",
"t. c #37274E",
"y. c #360E64",
"u. c #2B1568",
"i. c #3B1164",
"p. c #36156A",
"a. c #3A1679",
"s. c #2D1677",
"d. c #2C1673",
"f. c #490D44",
"g. c #540E45",
"h. c #471447",
"j. c #561448",
"k. c #460E56",
"l. c #550E57",
"z. c #471757",
"x. c #561757",
"c. c #7A0E55",
"v. c #671759",
"b. c #71114F",
"n. c #492458",
"m. c #55265A",
"M. c #4C2D4C",
"N. c #722E4F",
"B. c #461369",
"V. c #561966",
"C. c #461675",
"Z. c #561677",
"A. c #66166B",
"S. c #771476",
"D. c #71126D",
"F. c #472667",
"G. c #562966",
"H. c #533568",
"J. c #513074",
"K. c #692766",
"L. c #6F2C71",
"P. c #594475",
"I. c #704D72",
"U. c #654F51",
"Y. c #8C090C",
"T. c #830709",
"R. c #99080C",
"E. c #930E15",
"W. c #A8080C",
"Q. c #B2080C",
"!. c #B9080E",
"~. c #A90915",
"^. c #B50E18",
"/. c #870C35",
"(. c #8F1430",
"). c #AB152C",
"_. c #952622",
"`. c #C80B14",
"'. c #D50B18",
"]. c #C80C12",
"[. c #EC121B",
"{. c #CC152C",
"}. c #EA1632",
"|. c #E3132A",
" X c #EB3035",
".X c #CD2C2E",
"XX c #FE6339",
"oX c #8F1454",
"OX c #912C4F",
"+X c #A52852",
"@X c #961A78",
"#X c #8D156C",
"$X c #A41861",
"%X c #B1127D",
"&X c #962778",
"*X c #892D75",
"=X c #AD2A73",
"-X c #AC1353",
";X c #D11A4E",
":X c #F33049",
">X c #D52A77",
",X c #ED3072",
"<X c #E11F57",
"1X c #B64E4F",
"2X c #EC605F",
"3X c #F5B03D",
"4X c #E39933",
"5X c #EAA145",
"6X c #918C71",
"7X c #361787",
"8X c #3A2D8E",
"9X c #3237A3",
"0X c #4E198A",
"qX c #711A8C",
"wX c #4D328B",
"eX c #732F97",
"rX c #5625A6",
"tX c #6E26B0",
"yX c #581EA8",
"uX c #73518F",
"iX c #654FA3",
"pX c #7737C8",
"aX c #5A52C9",
"sX c #8E178A",
"dX c #AF1591",
"fX c #8F3292",
"gX c #B1258F",
"hX c #912FB3",
"jX c #A82AB0",
"kX c #C8268E",
"lX c #875496",
"zX c #916A93",
"xX c #8F53B3",
"cX c #8A67B2",
"vX c #A26AB1",
"bX c #B65EA0",
"nX c #E36592",
"mX c #8C2ECA",
"MX c #A739C7",
"NX c #A537E1",
"BX c #B656D5",
"VX c #936DC8",
"CX c #9965DE",
"ZX c #CA7BEB",
"AX c #D352DF",
"SX c #C136E1",
"DX c #7785E9",
"FX c #A592AA",
"GX c #F58D93",
"HX c #F5A498",
"JX c #B095E8",
"KX c #C88FF3",
"LX c #E3A0ED",
"PX c #FEFFFF",
"IX c #C5C0CE",
"UX c #C8E5A4",
/* pixels */
"S H T 8.%.E h.h.z.z.m.G.G.G.I.I.uXI.uXLXwXH.J.H.F.Z.wXF.F.C.C.C.C.C.a.C.C.v 1 :         + 4.Y A v l j v c m x M <.3 . > 4 1 b 4 ",
"S S 8.f.T T %.h.h.h.z.x.z.m.I.H.uXP.m.CXuXqXxXiXp.J.wXF.p.r.r.B.C.C.C.C.a.4.4.I k :     + 5 3 4 4 v m m M M M M M M , @ o , I b ",
"S S F F J J O.#.$.g.h.h.h.m.I.m.H.FXFXzXuXcXJXVXVXuXV.C.C.i.e.9.w.i.p.a.a.k.p.4.b M M   + j l x M M M 3.U M m x < , , ,   o b 7 ",
"p u Z S H J #.#.$.%.g.h.h.j.I.M.8.F.IXPXPXPXPXJXzXB.B.p.y.y.p.w.0.9.q.q.q.h.I I U 0.y.9.m M U 5.5.5.<.N h h > + > . : 7 + @   + ",
"6 p u i Z G O.#.$.$.$.g.f.j.I.h.k.h.8.uXFXIXFXP.0.p.p.i.i.y.y.y.w.9.3.S d O.b I j m U 3.5.5.5.5.N 1.1.h o o , 7 7 O     + k @ o ",
"2 6 u u y s ) @.*.-.-.g.#.j.N.%.6.h.k.4.q.q.8.R r.i.i.w.y.w.q.4.4.Y m A L %.j m U U 5.<.N N z 3.J.xXiXh > < b B ,           @ 7 ",
"= & % - 9 _ X.~.^.)./.-.@.b.N.%.6.6.8.r.r.r.r.n.q.w.9.q.4.Y A C 5 5 3 P E x.U 3.U M x h z z.iXvXVXeXu.h V n <.7.:             b ",
"8.J.n.%.P ) T.:XnX}.^.E.` -.N.P H H H Y Y T 8.6.4.6.4.U I D l l v c N %.&.m.x c > *   %.vXvXuXi.N N V b , b k 4 1 .           > ",
"5 R n.J.G.+.X.'.GXHX}.`.Y.=.oXy y i u C Z C L E D A C v D v m I U U m O.&.U.  + b G.&.L M.z h < k k > > R m > 4 4 >           , ",
"2 2 2 - 9 _ ..~.[.GXHX}.^.-XoXe a t u 5 u 6 L R 3 4 5 l v I U m m l < f ] M.E n.H.t.L + : > 1 5 b L B 7.m x M j c k O         O ",
"- 5 6 t y f ) X.^.|.nXHX|.;XoXQ s y - 2 2 : L P : 6 4 v l k 4 > @ < o _ OXI.t.L o   + C i u R 8.4.7.e.B B 7Xs.4 3.n j o   o o   ",
"u u p y y a _ ` =.~.[.2X2X;X$X) s a t 2 = * P R : 4 4 > O + o : B L.vXOXOXM.  2 E K.G.z.V.a.e.7.7.e.B 7.B I j k x n x < o @ + + ",
"5 u u Z H G O.' ` X.~.{..X;X&X` s s 9 t 2 1 P R . X . . + h H.cXvXvXL.N.-XI.fXxXL.r.9.B <.B c n b 4 : @ o x c 4 x <.d.a.m n <.M ",
"2 5 l C A S E O.&.$.;.=.{ +X=X_ _ s y t t = W M.1 * + > 1 h iXuX7.j m N.>XeXr.M V V x 4 + : + @   o + + + l n k u.s.u.7.<.<.<.n ",
"5 2 5 u i i Z H H T h.f.O.@X&X#.O.d y i 2 * P n.4 1 1 > + , n z I 7.B m.OXJ @ + : :   . @ X X = 2 6 k R 3.7.3.u.e.n j v l l x x ",
"2 5 5 u u u u p d F F T S L.@XE E F i t t : P h.k 5 1 4 R c I m k 5 o &.OXg . + . . + 1 5 C A 3.3.1.0.2.1.1.<.M v n x v C D m N ",
"2 2 2 t u u Z i Z Z i F 2 K.#XZ H T Y Z L 7 %.%.* L 5 b B 4 > + , +   &.OXP = 5 D S Y 4.9.0.0.0.0.2.2.1.M m m m I m U 3.4.3.4.4.",
"# X X = * - 2 2 t u i Z u S.&Xu S S S C l 6 %.t.3 C 5 4   o   o @ + @ &.+XT Y T 6.q.w.9.0.0.5.3.1.<.<.M <.U 3.4.Y 4.4.3.N D z 3 ",
"# X X * % * # * = = - 2 # L.&X- C Z C D A : E M.A C 5 l + + X = 1 u 5 ;.+XO.J J +.O.T 4.<.N N N z m z z x j j k v j z x 7.b Z H.",
"= = X X X X X * % = % -   K.&X% - t t C l # P R S A l A u t i i d d y ;.$XO.f _ f d i 5 R 8.t.r.r.m C t.t.F.J.7.T I.uXuXuX7.u t.",
"= ; . . X X X * X X % = X K.&X. = & - 5 C 5 P 8.l A A P f d i y i i t ;.=XR u 2 3 1 : * N.uXuXlXlX7.P P.J.H.H.7.5 R x k < > o   ",
". . . . . . . . . . X =   K.fX. = = - - C 7 h.F.e.U 3.C y y y t y i 3 &.=XR 5 5 6 2 6 2 : 6 l 3 : , O           o   @ @ @ o + o ",
". X . . . .   . . . . X   K.&X  % X X % % & E 6.<.9.5.5 ; - - 2 2 t 2 $.&XL 6 u u 2 6 6 1 1 1 = + + + + + + @ @ + + + + + + o + ",
"# X .   .   . . . . . %   K.=X& + % X X = % E 8.C b E 7 o X ; ; ; - . &.gXV.B.2 2 2 1 2 1 = 1 + + + + + + o . @ @ @ o @ + o + + ",
"X .   . @ . . . . . . X   A.=X9 . % % _ $.i P fXMXBXn.$ & & & 8 e 8 8 ] =X;.@.8 $ 0 Q 9 + X + + + + X X X O * 8 ) e 8 & X % X X ",
".   . # @ @ @ . . . X X   K.@X# t 8 - @.-.F $ sXNXSXY  .T.w 0 e _.! [ ).>X^.| Q r ~ T.e @ = 1 = + + 1 1 1 O [ 9 s }.Y.w & % % = ",
"%   * $     . . @ . X ;   K.#X# - - % F F : a %.8.m., ).'.Y.T.| T.R.`.,X,X}.}.!.R. ._.>.. 2 l 5 1 X 6 4 1 O T._.1X.X( q w 9 w w ",
"=   - e W X @ . . . ; 8 & #X$X  $ 8 X & e 0 ..9   % ' ^.Q.W.Q.Q.W.Q.].,X,X{.'.!.W.W.!.! + 2 = 6 1 + 1 6 : O /  X:X).~ ~ q q Q Q ",
"% . $ :.UX,.  X . . . X   v.=XUXU.& w E.:X:X:XX.^ W.:X|.'.'.'.].`.`.'.<X>X^.}.`.!.!.].^ o = - - = + 1 1 = + e R.Y.W.! ~ q q w w ",
"- . 0 o.,.g % % . . . .   v.=X6X,.0 q {  X|..X[ [ Y..X'.'.'.'.'.'.`.'.{.>XW.|.'.!.!.!.w X - - 2 = X - 1 + . e ^ 9 { { q 0 % % % ",
"- . 8 } & & X X X .   +   x.#X$ % & q T.~.Y.Y.) ~ R.^.W.!.!.!.R.T.T.T.).>XW.Q.!.Q.Q.Q.8 = - - - - X = 1 = . w ~ 9 q / Q % ; % % ",
"% . 8 } 7 & g 8 . X . ; g OX$Xq g ' {  ./ Q ' ' & 0 0 | !.Q.R. . .| T.).kXY.R.W.W.W.W.8 = - - - = X * = = . w q 9 w ! q - = % & ",
"X # ; ! # % g & . X . * ] OX$Xw 8 ' [ / Q 0 ' s 9 0 X } Q.R.{ [ [ } { (.kXY.R.R.W.W.R.& % 0 0 8 % X = - ; + 9 ^ w 9 w & % ' g - ",
"X = + - t X   . . X X X   g.$Xw   g T.` 9 # _ y & & X } R.{ [ ( f E. .;.kXT.| Y.R.W.W.0 & 9 9 0 = % = = = = % e e 0 - % # _.' = ",
".     9 ' % . . X # . X   g.oXQ X 0 Q ) 9 Q a * 7 - % ^ { ( ( Q d ` ( @.gX^ [ | Y.R.R.g - 0 9 0 % X - = % X % % & - % = X 8 l # ",
".   . * o @ . . .   . .   $.$Xe = & $ & 9 q I.lXeXK Q ( ( [ ( 9 . Q q N.bX+.(  .Y.Y.Y.w 0 9 0 E wX%.% 2 % % = ; & % % % % @   L ",
"= . 9 ) o.g X X * ' e.*XiXhXoXu - - 8 - = & G.oX=X_.5 $.=.R.} / % [ | bXLXGX~.Q ^ ~ q 8 - - % e.7X&.. u.R   = ; t 8 9 w & 2 P H.",
"X . - 9 _.g     e XXh.%.pXNXoX= @ @ - X   b zX_ ;.>.W i s e e Q Q q *.zXZXbX_.e w 9 & & & & X t.9X, X u.m # % = - = + ; X 2 2 t.",
"7 = t f s & @ X - ' & X 8.sXoX%   . $ 8 X 1 M.F _ 9 p t 9 8 w [ } ] ` zXLXzX/ X @ X X & ; X . + 7 X + . . X % = = = y y 8 2 = t.",
"      * % @ % g - 9 % X F c.b.@       . X   6 u # 9 8 . @ + @ 8 ^ ' g *XAXI.b.L i i i F G G F i & % . @ . .       o G &.F Z R R ",
"% .   X X       . % X O . $.c.  :           C i 8 0 8 . + + . u P O.P g.jXD p O.t 2 2 1 1 - . 1 1   X - 1 - t t d F d @.O.i i i ",
"8 %   > : . @ : > < , b V V.c., h @ +       5 i # 0 8         t % .   L fX7 . t           1 2 5 g F G f f y 9 - % . - +.+.G C c ",
"* 4 < 4 5 @ : @ h h n N 2.Z.c.x h           L u # 8 $ O .   @ t . @   L jXu - i 6 t e _ +.@.+.+.a 8 8 - = X @ . . X 2 d +.+.Z I ",
"% - + : > @ : . , @ > :   %.#X@ +           C L # X .       + - 9 y a @.#X;.;.&.@.Q s w 8 8 * . - = @ % = X % 5 2 % 1 2 C 4 F 6 ",
"* *                       H c.      o       5 L . $ 8 ` f _ *.` *.` ` ` c.#.O.O.R P <.h.7.7.wX7.wXR V wXu B F.+.b 7.G L 5 7 d > ",
". .         .             K oX. X . * ; w w _ _ s +.+.$.g.g.f.G J K 7.K.MXwXr.J.wXB.8XwXaXiXKXZXaXwXa.aX7X1.B h B <.R 9Xe.G i @ ",
"$ w             X $ 9 9 9 @.;.' ' Q e _ +.T f.6.6.q.w.y.y.0.$.*.j.8X9X8XhXC.q.0.p.wXcXJXKXKXKXZXCXBXxXaXaX0.2.T _ s s p.8Xj.C @ ",
"! / $ $ g ] ] o.;.o...Q w 9 f $ # # * 4.w.9.y.C.B.V.l.f.b.w.fXxX9.p.w.Z.jXhXtXmXCXwXM.m.n.x.v.K.G.G.V.G.l.l.f.@.*.` | ;.r.(.G : ",
"9 e e e Q ' Q 8 %     @ @ u c.6 % & t 6.k.6.w.A.C.c.-X$Xv.7XCXBXqXqXqXMXSXeXmXSXAXmXw.2 %.B.k.k.k.l.Z.Z.Z.V.Z.qXqXpX{.!.T 5 5 > ",
"Q 0 ; .     ( ; - 8 0 a w _ c.a 0 8 9 T 6.6.q.v.sXC.B.A.Z.qXkXbXlX@XtXVXMXhXBXZXAXpXyXC.T O.h.k.yX6.u 6 2 2 5 1 T mX}.[.v.s.0X9.",
"X.! 9 $ t 9 e ! ^ / [ / ( ` b.9 & - t U w.9.9.r.c.sXqXsXsX#Xv.-.oX-XrXCXZXBXZXJXNXpXyXtX6.O.d j.qX0Xl.j.$.$.F y 6.mX;X X/.0.0X7X",
"Q e Q Q Q ! ! ^ ^ ( ] Q e _ c.- = ; : 5.0.0.w.q.w.l.S.@X@XdXdXdXgXgXdXjXBXMXjXhXmX0X5.I Y Y 8.T h.0XZ.A.g.f.H t H S. X X).  . , ",
"~ ! ~ Q Q e w 9 0 - - = X u c.2 X X : U 9.5.k.6.5.3.3.4.6.l.D.D.sXdXdXdXdX@Xg.dXdXtX0X0XyX6.C l . . + B.4 1 1 4 %.#X4XXX{.X . @ ",
"e w 8 & - - = + X > + = + u c.; O X * I k.w.U U I m D m c v j o , 4 3 l S h.D D p mX0XI c l l 5 4 X + 1 1 5 k qXT ` 5X3X.X&   . ",
"X 1 + + + * + + = = X = * C c.$ X X X I 4.4.U I S K K O.K *.@.9 #       . X @     rXy.D l 6 3 6 4 5 >   . =   r.r.9 3X3XXX_ @ X ",
"= X = = + = = = + = = - = u c.2 + + * v I D I c #.=.-.-.#.-.*.( { ^ w 8 a = .     y.l.g.@.+.f +.y . 5 S g.v.%.. 5 9 4X4X.X` d 2 ",
"+ - = X + = = = - 1 1 - = S #XS y - X h z m I c #.-.$.O.-./.*.` ( { / / / 8 @ X . rXA.$.@.@.@.@.i j.A.k.x.S.qXA.J $._ a p 1 i p ",
"+ X + = = = = - 1 - - - 2 C #Xs q / 9 :.OX%.S S K O.K O.=./.=.{ [ { [ ^ ) X.^ 8 # rXB.S Z Z i i Z l.x.S T S.D.A.#XS.Z a d i S 4 ",
"- = = 1 2 u - t t 0 0 0 $ * oXp 0 | ^ ;.1X;.A #.#.$.O.K b././...[ / ( [ ` [ { / ~ rXe.j v k h x l H #.h.f.%.T F T J 5 u u * + . ",
"1 1 * = = - q e 9 8 8 8 * $ #Xp @ (  .` K J #.T O.#.#.$.@.=.X.} } [ ( ^ @.Q w e r tXp.4.x . : 1 6 i i 6     X = > * 6 4 O       ",
"+ X # # $ 0 w Q 9 % % * $ - #Xy   [ / /.=.-.@.@.-.+.d y ! { [ ..[ [ [ [ ` / Q Q  .tXC.I l 1 6 1   1 = = 1 2 - 1 = = 1 X         ",
"^ Q ~ 9 8 & 8 q w - % * X = oXy . ! / ) ) X.[ ! ) ( ) s s / / / ^ ^ / / @.) = X ! yX7X4.I m I x . . . + X = X . o   * .         ",
"T.~ ~ Q & & & 0 w 9 - ; $ 8 @.r $ ! [ ~ Q ) Y.[ ! ^ ^ ) ^ ..` ^ ^ ` / ` $.R c n V yXC.5.m j k x x 4 + o +       : 6.) X o       ",
"X.( ~ w w 0 9 9 0 8 $ $ O . y r r ! ( 9 )  .Y.[ [ [ [ ( ) ` ^ ^ ) f A c $.e.1.N V 0Xa.9.4.c +   . 1 6 X u 2       u.oX! z < o   "
};
