/* XPM */
static char *result[] = {
/* columns rows colors chars-per-pixel */
"64 64 256 2 ",
"   c #050605",
".  c #0B0706",
"X  c #0C0806",
"o  c #0C070A",
"O  c #0D0809",
"+  c #050808",
"@  c #130807",
"#  c #13070A",
"$  c #1B060B",
"%  c #14080B",
"&  c #1B080C",
"*  c #180606",
"=  c #0D0713",
"-  c #1B0712",
";  c #150812",
":  c #1A0913",
">  c #1B081B",
",  c #150718",
"<  c #23060C",
"1  c #23080B",
"2  c #2B080B",
"3  c #280707",
"4  c #32060B",
"5  c #33080C",
"6  c #3B080B",
"7  c #3A060B",
"8  c #240612",
"9  c #2C0713",
"0  c #240813",
"q  c #2C0813",
"w  c #24091A",
"e  c #2B091A",
"r  c #28061B",
"t  c #330612",
"y  c #330814",
"u  c #3B0914",
"i  c #34091A",
"p  c #3B091A",
"a  c #3A0517",
"s  c #1D0823",
"d  c #1E082B",
"f  c #190626",
"g  c #1D0734",
"h  c #0C0329",
"j  c #220925",
"k  c #2A0924",
"l  c #22092B",
"z  c #2B092B",
"x  c #280529",
"c  c #32092B",
"v  c #380825",
"b  c #230833",
"n  c #25083B",
"m  c #2B083C",
"M  c #270736",
"N  c #370837",
"B  c #36132A",
"V  c #43080B",
"C  c #4C080A",
"Z  c #470709",
"A  c #550707",
"S  c #590707",
"D  c #560807",
"F  c #5B0807",
"G  c #54080A",
"H  c #5C0809",
"J  c #57070B",
"K  c #430914",
"L  c #43091B",
"P  c #4C091A",
"I  c #490715",
"U  c #540814",
"Y  c #54091B",
"T  c #590818",
"R  c #4D171C",
"E  c #630809",
"W  c #6B090B",
"Q  c #650708",
"!  c #79070B",
"~  c #630914",
"^  c #63091C",
"/  c #6C0A1B",
"(  c #690716",
")  c #7D0914",
"_  c #7B091C",
"`  c #740917",
"'  c #6D111B",
"]  c #4A0A24",
"[  c #480828",
"{  c #590927",
"}  c #470936",
"|  c #580938",
" . c #481236",
".. c #4E152F",
"X. c #660825",
"o. c #770A27",
"O. c #79122C",
"+. c #670837",
"@. c #7A0A34",
"#. c #6E1434",
"$. c #270843",
"%. c #2A0944",
"&. c #26084B",
"*. c #29084B",
"=. c #28074B",
"-. c #35084A",
";. c #2A0953",
":. c #2B095B",
">. c #280654",
",. c #330A5C",
"<. c #380654",
"1. c #301059",
"2. c #2D0863",
"3. c #2D0666",
"4. c #360967",
"5. c #350776",
"6. c #320C71",
"7. c #1D0347",
"8. c #470B58",
"9. c #4F0D4B",
"0. c #761346",
"q. c #700F4E",
"w. c #4B2555",
"e. c #722559",
"r. c #430A67",
"t. c #4D0F74",
"y. c #660C66",
"u. c #7B1869",
"i. c #751277",
"p. c #4F3072",
"a. c #732F70",
"s. c #7B427B",
"d. c #87080D",
"f. c #97060D",
"g. c #890919",
"h. c #950B1B",
"j. c #980918",
"k. c #881219",
"l. c #AB091B",
"z. c #A50719",
"x. c #B4081A",
"c. c #A60B15",
"v. c #820A23",
"b. c #8A0A27",
"n. c #970A26",
"m. c #851727",
"M. c #961429",
"N. c #890A35",
"B. c #970C36",
"V. c #89143C",
"C. c #981132",
"Z. c #A40A23",
"A. c #A90A26",
"S. c #B60A27",
"D. c #A60C35",
"F. c #B70D36",
"G. c #BB1537",
"H. c #AB1630",
"J. c #88233A",
"K. c #922830",
"L. c #B02335",
"P. c #C80B29",
"I. c #C71638",
"U. c #D61638",
"Y. c #D30C30",
"T. c #D71636",
"R. c #8F124C",
"E. c #B11146",
"W. c #93284F",
"Q. c #AE334F",
"!. c #90186D",
"~. c #A71B67",
"^. c #902A71",
"/. c #B02E71",
"(. c #D11848",
"). c #E91C4D",
"_. c #D42A4D",
"`. c #E62647",
"'. c #F03056",
"]. c #D01969",
"[. c #D32971",
"{. c #EB2E6C",
"}. c #B24C6E",
"|. c #9F4F65",
" X c #CB4A71",
".X c #F65074",
"XX c #F0706D",
"oX c #FA8C7B",
"OX c #370886",
"+X c #581688",
"@X c #510D90",
"#X c #6D0F90",
"$X c #55288D",
"%X c #6E2A91",
"&X c #580EAB",
"*X c #7409A9",
"=X c #6716A9",
"-X c #7606B8",
";X c #6F12B0",
":X c #732EAA",
">X c #7E4F9D",
",X c #750BC8",
"<X c #710ECE",
"1X c #7912E4",
"2X c #7D0FE4",
"3X c #8E1692",
"4X c #B52899",
"5X c #AC2E8F",
"6X c #8E19B1",
"7X c #8F2DB3",
"8X c #B035B2",
"9X c #A721A1",
"0X c #D0328E",
"qX c #F5368E",
"wX c #D51BB3",
"eX c #D32FAC",
"rX c #E831AD",
"tX c #AB4C94",
"yX c #8849B7",
"uX c #9B50A7",
"iX c #F2518D",
"pX c #F0728E",
"aX c #D556A7",
"sX c #8B18D1",
"dX c #942DCC",
"fX c #A532D4",
"gX c #8815F5",
"hX c #8E18EC",
"jX c #A81CF2",
"kX c #9A24F3",
"lX c #A928F7",
"zX c #B829FB",
"xX c #BC33F8",
"cX c #AB2AEA",
"vX c #AB0ECA",
"bX c #CB30CC",
"nX c #CF38F2",
"mX c #E833EA",
"MX c #CE1FD1",
"NX c #974DC8",
"BX c #B04DCF",
"VX c #A56FDB",
"CX c #CA4DCE",
"ZX c #D64CF0",
"AX c #FA59FA",
"SX c #ED4DF7",
"DX c #D873F4",
"FX c #FA64F9",
"GX c #FD78FC",
"HX c #EB62F2",
"JX c #DE9099",
"KX c #E4A6DE",
"LX c #FFEDC3",
"PX c #F5D2FD",
"IX c #E3CDE6",
"UX c #B295CF",
/* pixels */
"> > : ; : & & & % ; : : & : > ; : : e w > > > > > > > > s > s > f , > > > > , > , > : : > ; : ; & & % : & % & & & & & & * 1 * 1 ",
"> , > : : % & ; & ; ; & ; > > - > > z z > > > s j j s s s s s s s > > > , > , > > > , > : : : ; ; : % & : & & % & % * & & * * 1 ",
"> , : % : : & : ; : : > : > : > s > > s j s d d s d l j l s d s s s > > > > > > > > > , > > > & : - > & : & & & & & & & 1 * 3 3 ",
"> > : : % : ; ; : ; ; : > > > w j j j j d j j d l l d d d d d j s f f f s s s s > > > > : > : > : : : - & & - & & & & 1 1 1 1 3 ",
"; % ; & ; & : & & , , > > > j d j l l l l b b b b b g b b d g g d b l d d j d d s f s > > > : > > : : - - & & & & & 1 1 1 3 3 3 ",
": ; ; % ; ; ; : : - , > > d l b b b M n n n n g n b b b b n b b b b g d l g d d d s s s s > w > > w : - - 0 0 - 0 1 1 1 3 1 3 2 ",
"% % % % ; : > ; , > > j l l b n n n $.$.$.$.$.$.$.$.n $.$.n n n $.n n b b b b l l j l d s > > w w > w - 0 0 0 1 0 1 0 1 3 2 2 2 ",
"X O % % % % % > > > j b n $.n $.$.*.$.$.%.&.&.&.$.&.$.&.$.&.&.$.$.$.$.$.n n n n b b b j j j j w w w w w w w w 0 0 0 1 1 2 2 5 6 ",
"O X @ X @ % % % : s n $.&.&.&.&.&.>.>.>.>.>.&.&.>.&.&.>.;.=.*.*.&.&.$.$.$.$.n n n b b l l x j j j w w r w 0 e 0 e 0 q 2 q 5 5 6 ",
"# X % X X X % - > d $.:.2.2.2.2.2.3.:.:.:.:.:.:.>.:.:.:.:.:.;.;.;.;.;.&.&.&.$.n n n m b b l z l j j w w e e e 0 e q e q 2 q 5 u ",
"% # % % % X @ > ; # , , g $.2.6.5.5.5.5.3.3.3.6.3.3.3.2.2.:.4.,.,.:.:.:.*.*.*.*.$.$.m n m M M z x k k e w e e e 0 e q q q q q 5 ",
"% % % % % & # @ O O   X . . = f g >.3.5.OX5.6.5.5.6.6.4.6.4.4.<.,.,.:.:.:.:.>.*.*.&.%.%.m m M z x k j k k e e e e q q q y q 5 5 ",
"% % % % # : : % r.@X4.l , .       # , d &.:.6.OXOXOX5.5.5.6.t.5X-.m $.>.:.:.:.:.;.*.%.n M m M M z z x k k i e e i e e q y q 5 q ",
"# % % : & ; > @ &XgX2X-X#Xt.8.M s ; . . X ; f g >.6.OXOXOXOXt.a.c j s s d g *.>.;.;.8.t.r.n %.%.m M z z k k c i i y i i i y y y ",
"1 I 9 - : % , # =X2X-X*X*X*X*X#X@Xt.4.$.d = X X = , g 7.3.5.OX3.| [ s s > > s f n =.;.4.4.*.-.%.N m N z c c c i v i i i i y y y ",
"u g.E T U T e ; &X2X,X-X*X*X*X#X*X;X;X<X<X&X@X4.n , = o ; l =.:.%X@X,.n d s f s > s s b $.-.-.-.%.m N N c c v v v i p i i u y y ",
"V ) E / ~ ) p = =XgX1X<X,X-X-X*X*X*X-X,X<X1X1X1X2X<X=Xt.&.f = h b 4.5.4.,.*.M b b l s s m 1.<.<.-.-.N N v v v v v v p i p a a t ",
"U h.` ( ~ ) u ; <XgX1X,X,X-X-X-X,X,X<X<X1X1X1XgXkXlXxXxXxXfX7Xr.f s s f b $.;.=.n b l b 4.4.4.,.<.-.N N N N } v v [ v p i i t 9 ",
"9 U U T ~ g.a % t.=X&XNXVXdX;X-X-X-X,X1X1X1XgXhXlXlXnXnXZXSXAXZX+X>.g h g f = h g n %.,.5.5.5.r.,.-.-.N N } } [ } [ [ [ p p u u ",
": # & : 0 2 - , , = h >XIXIXPXIXVXVX<X2X1XgXkXkXlXzXnXnXSXAXFXFXFXZXdX+XdXfX*X5.$.f , s m ;.4.5.4.<.-.} } } | | [ [ ] ] ] L L p ",
"0 1 - 0 - : & : 6.OX;.@X&X,XNXIXPXUXhXhXsX1X<XhXcXxXnXnXAXFXFXAXFXFXAXAXSXmXzXjXhX,X@X4.g = = s n m l c [ +.Q.V.[ { [ ] ] ] L a ",
"2 0 1 1 1 - & ; :XkX<X;X3.3.3.$X:X3.@X&X=X@X5.OX:X;XdXKXDXCXHXGXGXGXFXAXSXmXnXnXjXhXhXgX1X=X=X1.l w y 9 9 v | +.9.| | | } [ [ L ",
"0 & - & & - & > dXcXfX&X3.s.w.a.$X7.>.t.r.2.%Xp.$XNX5.6.+X2.:.$XcXBXCXHXSXSXmXnXcXjXsXhXgXkXkXxX7Xb ] {  .< $ 9 [ | 9.+.[ [ [ L ",
"% & ; O O % : : OX$X>XOX$XuX5.3Xt.7.2.$Xt.p.yX$X#XCXdX#X&Xt.h n 4.3.5.@X;XdXjXcXjXcXrXcXkXlXxXZXdXk r 8XAXbX9X9.t $ 8 t p a ] [ ",
"V M.L.E m.~ 1 q r.$XyX&X&X&X&XdX:X3.3.%X$X5.5.5.+X9X3.4.i.6X7XdX6X<XVXVX1X1X<XsXvX9X8X*XsXcXlXSXfXE.L.aXAXAXmX4XwX8X^. .& 2 7 p ",
") U..Xx.'.I.C R q.u.3X,.y.t.t.7X7X@XOX;X@X>.:.;.8.8X8XwXwXMXsX&X&XdXVXVX1XVXVXdXBXNXyXa.6XhXfXDX7X_.).CXGXFXCXR.mXFXPXKXe.8.8.i ",
"Y..XpX'..X'.c.' 0.~.4X..0 i 8 5X~.R.t.&X@X@X@X!.!.bXcX3Xy.8.<.-.,.t.+Xt.@X$X@X6.4.2.;.t.8XBX7X=Xt.{ O.9.y.uXBXbXMXKXPXPXGXnXjXdX",
"f.'.XXY.XX_.x.h.(..XqX@.#.T 7 /.].h.{ i.sXZXZX].{.eX#X!.~.R.9.-.<.<.r.p.4.<.>.7.=.=.-.y.3X4X3X*Xu.q $ ^.tXuXtX5X{.aX5XtXBXcXjXjX",
"c.T.`.T.'.P.f.k. XpX{.@.E.S.f./.iX XQ.].vXBXCXpXiXeXN c Q.9.x M N N 1.p.8.9.q.y.3X}.pX!.#X#X-.b z e - }.}.k 0 W.Q.iXJ.7 y.<XsXsX",
"x.P.c.c.T.T.f.d._.'.{.o.C.x.f.[.iX.X`.{.D.v N pXiXrX8X XJX}.c z } N N q.9.| +.9.9.| ^.0.!.~.@.V.#.T _ iX0Xu.^.4X0XqX4X8X9X#X6X6X",
"f.c.c.c.f.c.x.f.j.x.(.X.b.x.z.iX[.U.U.(.E...] (.).wX5XB.n.+.c c N N M 0.R.| +.~.%X}.JXpXE.pX'.'.'.P.'. Xu.u.!.0.B.0.}  .#.e.!.8.",
"d._.T.L.c.c.x.f.j.l.(.X.n.x.z.0XE.d.P.E.E._.I.S.F.4X/.J.k [ v x B N 9.q.+.| } N...aXLX XE.qXT.'.(.P.Y.pX|.v a ^ I Y Y v O..X0XD.",
"h.'.T.XXc.f.c.H.k.c.E.{ b.j.! 5XR.H ) R.R.b.n.n.D.9X9.R.[ V.9.} N x UXIXH  .[ E.~.|.IX}.D.~.n.Z.D.` ) aXKXeX[.tX5X4X^.V.Q.(.0XI.",
"' L.K.k.E G E ' ) M.[.0.@.n.` ~.0.^ ^ 0.+.s c b.D.4X!.R.{ } R.!.N N p.a.X.| } /.eXR.I.V.0.!._ g./ = = tXKXKXiXaXrXaX/.{. X+.~./ ",
"D * & C O.C.X.& | e.3X7XfXKXuXX.o.R.!. Xe.8X8X+.q.9X8.UXuX8.| | +X3Xu.tX!.E._.).).[.W.>X5X9X3X]._.~.#.X.h.a m.l._ ! W U.U.tX!.~.",
"d.1 q ! M.XXC.I [ } y.<XdXSX8XP ` q.tXLX^.dX*X#X3X6X%XDXDX6Xy./.#X6X).{.W.b.{.).).iXW.yX8XoX/.{.`.E.m.L j.H.H ^ L `.M.H.G.M.! ) ",
"C % 2 E X.W.V.U } d r.t.t.t.9.i L c N ^.@X&XhXsXMXmX9X=X@X6X@X#X6X/.oXXXD.C.(.B.b.].R.M e.LXJXD.J _ Y o.j.S.u & R L.m.J n.S.x.x.",
"5 @ & V #.C.0.p z > b j z 4.y.N.A.X.i !.t.t.3Xy.9.-.3X@X7.&X;X@X-.|.LXJXN.@.(.p r v.T } %X/.R O.K _ 9 m.j.L.K.6 0 ' K.Z.U.P.P.P.",
"1 * & q u * O ; O O O . X l } ] { L L T T G Z R + + 6XkX:X2.$.f o : _ e.9.I G.] t o.T 3XZX/.v { t / - - 6 x.4 * i O.( A.S.j.z.d.",
"w K 6 R 0.i O O O X X O O O 1 1 & a t 5 C U ~ y + z SXHX7X+ X = , = T a.e.T G.p a ` J x q.L.H.o.0 h.H.W.] m.Q.L.Q.K.J.F.S.z.d.! ",
"; ' K.) ' w X % O + X X + k u u 6 6 6 V U T T 1   j 6X6X8.+ , = o  ._.N.} { G.e 2 M.J.] k - - 0 0 2 9 i $ I U.).'.'.'.(.F.j.W ! ",
"@ & & % @ @ % X . + + O O & V V 5 6 V C V G ~ 1 O : { | c o ; = = #.M.M.8.9.F.e # J.Q.#.q.B.C ; % % X   $ g.j.z.c.c.S.E.F.g.Q Q ",
"@ X X X X % X X     + + + $ 5 6 6 6 C C G G ` 1 . ; N [ e O O O O > w 1 q p P u t t u 1 i 9 t : % % i P X.F.B.B.M.D.F.S.S.d.Q Q ",
"+ X O X X O X % O + O O + & 6 V V V 6 5 T W ) $ . w q.9.N     O O ; O 9.| 3 & 0 & % 2 1 # 1 6 & % @ 9.R.n.B.F.P.H.D.F.S.A.! Q Q ",
"O X O . O X % X X   X + X X 5 6 5 6 6 6 G E ` &   B iX].q.z m , % =   %X9.* % % % % 4 J S Z G 8 O   * V ` Z.Z.A.S.A.S.S.A.! H W ",
". . O X X & q u   + +     5 6 5 4 4 V V V G W $ + w W.q.| 9.9.c w y u r 9 3 % % @ ; 6XvX3Xq.[ #   K n.S.S.S.l.l.l.Z.Z.A.z.! H Q ",
"  . O X X 1 R W     + X   K 5 5 3 5 V V C G W 1 % : i P @.{ R K Y ' v.{ P 5 % % O % !.R.R.@.T 3 v.P.S.l.z.l.z.x.z.j.Z.z.j.! S H ",
"X X O X X 2 ~ V   + X + + e 1 3 5 5 2 5 G G 6 3 C / / P.M.b.h.Z.g.U.G.h.h.T O % O @ * 3 3 3 3 j.Y.A.l.l.z.z.l.z.j.g.z.l.j.! H E ",
"% X X X X & 2 6 * 1 @ X & 3 & & & O O 1 3 * C W ` d.U.H.A.A.f.h.h.U.M.M.h.( O @ X @ & 3 2 1 ~ Y.l.z.j.h.f.h.c.z.C.C.H.H.l.! H Q ",
"X X . X X * * * @ 4 6 G Z V 3 * V V E ! W G S z.j.h.U.l.g._ M.g.v.I.n.h.c.~ O % O X & 1 3 2 A.P.x.l.c.j.j.f.j.z.h.h.h.c.l.) G H ",
". . . . X X @ X * 5 Z 3 1 2 6 3 1 W H 1 Y ~ U V W I.) k.z.g.k.o.G.I.k.n.n.T X % X @ @ & 3 6 S.c.f.f.d.! ! d.d.f.d.d.! d.g.) F F ",
". . . . X * Z E E C E 6 & C H H ) _ T u 0 Y / Y g.Z.g.( U g.j.T C.(.o._ _ U + % X X 2 1 & ] Z.! Q Q Q F E Q Q W W W Q F F F F E ",
"    .     3 C 6 1 2 5 6 3 @ 5 ( K 9 I I t t i #.o.t T Y a K X.@.H.#.{ +.v w . @ X O y q - Y h.F Q F F F H S D D A A D A A A D Q ",
"9 C 6 C W ! d.C @ 1 V 5 2 K o./ q 1 t u K 8 8 ` U 8 t I I K # 2 o.[ , B R q X O X O ; & : ^ d.E F F F F S S A D A G S H F D F F ",
"1 V ) ) V 3 6 6 @ 2 H ~ g._ P T T w 0 ^ ^ X.n.v.X.` t $ U ` { v.A.O.o.K & & O X X % v y & Y d.F F F F F S A D G C A D S F F Q Q ",
"3 u 3 & 1 6 5 6 5 @ O I U 1 q u u I 9 8 t X./ 9 i p p p t K { n.o.y K 6 i.t.  X   $ u & % T f.F F D F H G A A A A A F F Q E F Q ",
"_ _ u % 0 0 t t 2 2 / o.q % t K a I t ; i o.u % i Y P Y I & # T P % e 3XxX$X. ; X % y y : Y f.F A F A D D D D G A A F S H E F F ",
"U H I & i o.O.} o.M.v.v.g.L ; q T U a T n.B.N.o.p w p Y L i T n.v.} sXzXzX+X* $ X X & q 1 G f.E F S A A D F D S D D G D S G D F ",
"1 q q & 1 ] e.W.W.w.w p a 9 : a / v.N.A.o.[ ^ ( L - p v.b.R.Z.n.T X.+.q.9Xi.7 a & @ * * C W f.W E H F E H H H F S S G F A G A D ",
"6 U U q O + e Y 2 q p ] p ^ u < ; 9 X.o.a B N  . .#.9 $ w Y h.o.& 0 & * * 4 3 3 5 6 C 3 @ * d.W Q W W Q Q Q Q F S S S G A D A D ",
"5 6 2 % 9 _ b.9 # 0 Y T Y Y Y 0 - K X.[ w B { O.{ X.^ K $ % L a & 0 u ^ C K 4 < @ & 5 1 @ % E d.A Z Z Z C A D D S E F F H F F F ",
"5 & t T v.b.o.( t & # $ q y 0 0 P n.A.X.w & 1 6 I V U y @ I z.h.t O 1 6 7 7 7 V % + C ) G O 3 G %   X @ .   X * 1 * * 3 5 V V Z ",
"_ X.h.l.g.@.n.j.^ 9 p / k.` { n.z.A.@.n.n.~ w 0 y K V u X.b.Z.b.X./ u O $ 1 3 < O 2 W ) E y 5 * . X X X     @ 7 4 * X @ .       ",
"X.g.n.Y < 5 6 2 1 1 a g.h.b.N.n.Z.X.T ) ` T y y _ x.A.v.A.x.l.v.j.x.d.9 & 9 ! d.W / f.f.` ( f.f.V * * Z ! E A ! ! Q Z F S 3 X . "
};
