/* XPM */
static char *result[] = {
/* columns rows colors chars-per-pixel */
"64 64 207 2 ",
"   c #030000",
".  c #280919",
"X  c #32091A",
"o  c #3A0F23",
"O  c #371925",
"+  c #3C1C2D",
"@  c #381826",
"#  c #3F2934",
"$  c #3E383A",
"%  c #42172B",
"&  c #421B2D",
"*  c #481E32",
"=  c #492636",
"-  c #542C3E",
";  c #47333C",
":  c #592E42",
">  c #483A44",
",  c #5B3748",
"<  c #593A4B",
"1  c #583646",
"2  c #66394B",
"3  c #3C7456",
"4  c #3A7358",
"5  c #38795A",
"6  c #3A6C51",
"7  c #3E7D60",
"8  c #5B434E",
"9  c #5E4250",
"0  c #6B4956",
"q  c #6A4758",
"w  c #734A5D",
"e  c #69575E",
"r  c #71575E",
"t  c #4E6A5B",
"y  c #40755C",
"u  c #45795C",
"i  c #57685F",
"p  c #794C61",
"a  c #764C61",
"s  c #6D5561",
"d  c #765867",
"f  c #4D7C63",
"g  c #4E7560",
"h  c #567F69",
"j  c #557B66",
"k  c #5A6E65",
"l  c #6A6162",
"z  c #7D6370",
"x  c #884C65",
"c  c #97446D",
"v  c #845C6E",
"b  c #86576C",
"n  c #8B5E74",
"m  c #9E5679",
"M  c #974970",
"N  c #A4547B",
"B  c #A25A7D",
"V  c #AB567E",
"C  c #836372",
"Z  c #8C6879",
"A  c #916A7C",
"S  c #94647A",
"D  c #3A815E",
"F  c #3A8263",
"G  c #388967",
"H  c #39916B",
"J  c #438463",
"K  c #4A8B67",
"L  c #4C856A",
"P  c #4C8C6C",
"I  c #49876A",
"U  c #5A846D",
"Y  c #538B6E",
"T  c #56896C",
"R  c #50906E",
"E  c #558D72",
"W  c #5B8D75",
"Q  c #5D8A75",
"!  c #4E9573",
"~  c #549174",
"^  c #5A9375",
"/  c #549B77",
"(  c #5B957A",
")  c #549C7C",
"_  c #5A9C7B",
"`  c #628473",
"'  c #678B79",
"]  c #639279",
"[  c #629C7C",
"{  c #6C977C",
"}  c #72957D",
"|  c #54A07A",
" . c #AD5D83",
".. c #B45D84",
"X. c #957383",
"o. c #997A88",
"O. c #A46382",
"+. c #AC6587",
"@. c #B3668D",
"#. c #A6748A",
"$. c #BB6990",
"%. c #AE7992",
"&. c #A77A91",
"*. c #BB7796",
"=. c #C27295",
"-. c #C6759C",
";. c #C8789D",
":. c #C77DA2",
">. c #649E81",
",. c #6A9C83",
"<. c #6D9A85",
"1. c #7C9C8A",
"2. c #759484",
"3. c #5DA984",
"4. c #5CB28D",
"5. c #63A382",
"6. c #6DA385",
"7. c #67AA88",
"8. c #74A48D",
"9. c #71AC8C",
"0. c #7FA189",
"q. c #65B18A",
"w. c #69B28C",
"e. c #70B08E",
"r. c #7AAC92",
"t. c #6CB593",
"y. c #73B494",
"u. c #78B795",
"i. c #97838E",
"p. c #809F8D",
"a. c #958992",
"s. c #A6808F",
"d. c #A08994",
"f. c #A68595",
"g. c #B5839A",
"h. c #BC8599",
"j. c #8BA597",
"k. c #90AF9E",
"l. c #89B397",
"z. c #BE8BA2",
"x. c #B78DA1",
"c. c #B792A3",
"v. c #99B7A4",
"b. c #AEB1AF",
"n. c #C1879D",
"m. c #C48BA4",
"M. c #CA8AA8",
"N. c #D482A9",
"B. c #D984AC",
"V. c #D989AD",
"C. c #D58AAB",
"Z. c #C594AB",
"A. c #CD94AD",
"S. c #C595AA",
"D. c #D094AE",
"F. c #DB8DB2",
"G. c #D68AB0",
"H. c #CF97B2",
"J. c #CF99B2",
"K. c #D59CB6",
"L. c #DD95BA",
"P. c #DC9EBA",
"I. c #D999B6",
"U. c #E58DB6",
"Y. c #EA8EB9",
"T. c #E88CB5",
"R. c #F38FBC",
"E. c #E493B6",
"W. c #E595BA",
"Q. c #EC94BC",
"!. c #E49CBD",
"~. c #EC9ABE",
"^. c #EB91B7",
"/. c #F293BE",
"(. c #F497BF",
"). c #D6A1BA",
"_. c #DBA2BC",
"`. c #E2A2BE",
"'. c #EDA4BF",
"]. c #99CBAB",
"[. c #A4C4AF",
"{. c #ED96C1",
"}. c #E59BC1",
"|. c #EC9CC2",
" X c #F495C2",
".X c #FA95C3",
"XX c #F39BC4",
"oX c #FA9AC6",
"OX c #F69CC9",
"+X c #FC9CC9",
"@X c #DCA8C1",
"#X c #D2B5C4",
"$X c #E5A3C1",
"%X c #EBA2C4",
"&X c #EEA4CA",
"*X c #EBA9C4",
"=X c #F3A1C5",
"-X c #F5A2C9",
";X c #FBA2CC",
":X c #F8A2C7",
">X c #FDA6D0",
",X c #B1D7C0",
"<X c #B3E8CA",
"1X c #C2DEC7",
"2X c #C8E2CE",
"3X c #D8F5DF",
"4X c None",
/* pixels */
"4X4X4X4X4X4X4X4X4X4X4X4X4X4X4X4X4X4X4X4X4X4X4X4X4X4X4X4X4X4X4X4X4X4X4X4X4X4X4X4X4X4X4X4X4X4X4X4X4X4X4X4X4X4X4X4X4X4X4X4X4X4X4X4X",
"4X4X4X4X4X4X4X4X4X4X4X4X4X4X4X4X4X4X4X4X4X4X4X4X4X4X4X4X4X4X4X4X4X4X4X4X4X4X4X4X4X4X4X4X4X4X4X4X4X4X4X4X4X4X4X4X4X4X4X4X4X4X4X4X",
"4X4X4X4X4X4X4X4X4X4X4X4X4X4X4X4X4X4X4X4X4X4X4X4X4X4X4X4X4X4X4X4X4X4X4X4X4X4X4X4X4X4X4X4X4X4X4X4X4X4X4X4X4X4X4X4X4X4X4X4X4X4X4X4X",
"4X4X4X4X4X4X4X4X4X4X4X4X4X4X4X4X4X4X4X4X4X4X4X4X4X4X4X4X4X4X4X4X4X4X4X4X4X4X4X4X4X4X4X4X4X4X4X4X4X4X4X4X4X4X4X4X4X4X4X4X4X4X4X4X",
"4X4X4X4X4X4X4X4X4X4X4X4X4X4X4X4X4X4X4X4X4X4X4X4X4X4X4X4X4X4X4X4X4X4X4X4X4X4X4X4X4X4X4X4X4X4X4X4X4X4X4X4X4X4X4X4X4X4X4X4X4X4X4X4X",
"4X4X4X4X4X4X4X4X4X4X4X4X4X4X4X4X4X4X4X4X4X4X4X4X4X4X4X4X4X4X4X4X4X4X4X4X4X4X4X4X4X4X4X4X4X4X4X4X4X4X4X4X4X4X4X4X4X4X4X4X4X4X4X4X",
"4X4X4X4X4X4X4X4X4X4X4X4X4X2.` 4X4X4X4X4X4X4X4X4X4X4X4X4X4X4X4X4X4X4X4X4X4X4X4X4X4X4X4X4X4X4X4X4X4X4X4X4X4X4X4X4X4X4X4X4X4X4X4X4X",
"4X4X4X4X4X4X4X4X4X4X4Xj.<.' L <.4X4X4X4X4X4X4X4X4X4X4X4X4X4X4X4X4X4X4X4X4X4X4X4X4X4X4X4X4X4X4X4X4X4X4X4X4X4X4X4X4X4X4X4X4X4X4X4X",
"4X4X4X4X4X4X4X4X4X4X<.( 7 I 7 f 4X4X4X4X4X4X4X4X4X4X4X4X4X4X4X4X4X4X4X4X4X4X4X4X4X4X4X4X4X4X4X4X4X4X4X4X4X4X4X4X4X4X4X4X4X4X4X4X",
"4X4X4X4X4X4X4X4X<._ G I t.>.3.I 2.4X4X4X4X4X4X4X4X4X4X4X4X4X4X4X4X4X4X4X4X4X4X4X4X4X4X4X4X4X4X4X4X4X4X4X4X4X4X4X4X4X4X4X4X4X4X4X",
"4X4X4X4X4X4X4XE H G >.9.,.E 4.4 U 4X4X4X4X4X4X4X4X4X4X4X4X4X4X4X4X4X4X4X4X4X4X4X4X4X4X4X4X4X4X4X4X4X4X4X4X4X4X4X4X4X4X4X4X4X4X4X",
"4X4X4X4X4Xi 8.F H 4.>.f ,X' 5.! L f 4X4X4X4X4X4X4X4X4X4X4X4X4X4X4X4X4X4X4X4X4X4X4X4X4X4X4X4X4X4X4X4X4X4X4X4X4X4X4X4X4X4X4X4X4X4X",
"4X4X4X4X4X4Xy F G ) 9.[.2Xv.^ q.K E W 4X4X4X4X4X4X4X4X4X4X4X4X4X4X4X4X4X4X4X4X4X4X4X4X4X4X4X4X4X4X4X4X4X4X4X4X4X4X4X4X4X4X4X4X4X",
"4X4X4X4X4X4X4X4 D F ,.0.3X2.J w.y.K E 2.4X4X4X4X4X4X4X4X4X4X4X4X4X4X4X4X4X4X4X4X4X4X4X4X4X4X4X4X4X4X4X4X4X4X4X4X4X4X4X4X4X4X4X4X",
"4X4X4X4X4X4X4X4X3 6 R _ <X3 9.[ 3.q.P U 1.4X4X4X4X4X4X4X4X4X4X4X4X4X4X4X4X4X4X4X4X4X4X4X4X4X4X4X4X4X4X4X4X4X4X4X4X4X4X4X4X4X4X4X",
"4X4X4X4X4X4X4X4X4Xf 3 5 R [ 7.7./ w.y.E W 2.4X4X4X4X4X4X4X4X4X4X4X4X4X4X4X4X4X4X4X4X4X4X4X4X4X4X4X4X4X4X4X4X4X4X4X4X4X4X4X4X4X4X",
"4X4X4X4X4X4X4X4X4Xj.g 6 5.9.[ w.u.7.e.w.! ( ' 4X4X4X4X4X4X4X4X4X4X4X4X4X4X4X4X4X4X4X4X4X4X4X4X4X4X4X4X4X4X4X4X4X4X4X4X4X4X4X4X4X",
"4X4X4X4X4X4X4X4X4X4Xj.h 3 5.q./ [ 9./ 7.t.! ' ` 4X4X4X4X4X4X4X4X4X4X4X4X4X4X4X4X4X4X4X4X4X4X4X4X4X4X4X4X4X4X4X4X4X4X4X4X4X4X4X4X",
"4X4X4X4X4X4X4X4X4X4X4Xv.u y ] 9.9.9.u.y.7.3.~ L W 4X4X4X4X4X4X4X4X4X4X4X4X4X4X4X4X4X4X4X4X4X4X4X4X4X4X4X4X4X4X4X4X4X4X4X4X4X4X4X",
"4X4X4X4X4X4X4X4X4X4X4X4X4Xj L T e.[ _ u.U 8.L 5.I ^ p.4X4X4X4X4X4X4X4X4X4X4X4X4X4X4X4X4X4X4X4X4X4X4X4X4X4X4X4X4X4X4X4X4X4X4X4X4X",
"4X4X4X4X4X4X4X4X4X4X4X4X4X4Xt U 5 q.w.u 1.2X{ ( 3.P ( ` 4X4X4X4X4X4Xq 2 #.4X= 4X4X4X4X4X4X4X4X4X4X4X4X4X4X4X4X4X4X4X4X4X4X4X4X4X",
"4X4X4X4X4X4X4X4X4X4X4X4X4X4X4XU ~ 5 J u.k.1X[.5.| q.F 6.` 4X4Xd.= C z.P.`.*XP.n 1 4X4X4X4X4X4X4X4X4X4X4X4X4X4X4X4X4X4X4X4X4X4X4X",
"4X4X4X4X4X4X4X4X4X4X4X4X4X4X4X4Xv.f T u T l.].K q.3.J 8.k $ = #.A.$X!.=X-XW.&X_.J.- 4X4X4X4X4X4X4X4X4X4X4X4X4X4X4X4X4X4X4X4X4X4X",
"4X4X4X4X4X4X4X4X4X4X4X4X4X4X4X4X4X4XU T J 5 R w./ 7 r.t   o.).$X%X~.-X^.{.=X^.XX!.K.A 9 4X4X4X4X4X4X4X4X4X4X4X4X4X4X4X4X4X4X4X4X",
"4X4X4X4X4X4X4X4X4X4X4X4X4X4X4X4X4X4X4X1.W P R K I 8.v.l s.S *.%X(.oXXX{.XXOXoXQ.-XF.*Xz.+ 4X4X4X4X4X4X4X4X4X4X4X4X4X4X4X4X4X4X4X",
"4X4X4X4X4X4X4X4X4X4X4X4X4X4X4X4X4X4X4X4X4Xj [ ] W 4X4X+ P.=X:.m XXR. XOXXX{.~.;X/.;XW.*X).v s 4X4X4X4X4X4X4X4X4X4X4X4X4X4X4X4X4X",
"4X4X4X4X4X4X4X4X4X4X4X4X4X4X4X4X4X4X4X4X4X4X2.j.4X4Xb.S %X~.}.}.N B.:XXX X X X{.{.XX.XT.%X$X%.* 4X4X4X4X4X4X4X4X4X4X4X4X4X4X4X4X",
"4X4X4X4X4X4X4X4X4X4X4X4X4X4X4X4X4X4X4X4X4X4X4X4X4X4Xd m.{.+X X|.~.=...^.Q.XXOXOXOX.X.X+XoX|.$XK.p Z 4X4X4X4X4X4X4X4X4X4X4X4X4X4X",
"4X4X4X4X4X4X4X4X4X4X4X4X4X4X4X4X4X4X4X4X4X4X4X4X4X4X@ P.XX+X.XXX;X~.V.m L.&X}. X+X.X.X.X XOXXX!.I.%.+ 4X4X4X4X4X4X4X4X4X4X4X4X4X",
"4X4X4X4X4X4X4X4X4X4X4X4X4X4X4X4X4X4X4X4X4X4X4X4X4X4Xd '..X/.(..X^.=XQ.'.O.@.&X XoX.X+X.X(.{.(.XX|.}.m.2 i.4X4X4X4X4X4X4X4X4X4X4X",
"4X4X4X4X4X4X4X4X4X4X4X4X4X4X4X4X4X4X4X4X4X4X4X4X4X4X%.'.^.oX(.=XXX(.|.=XXX:. .U.Q.OX{.Q.;XoX XXXXXOX&XK.A 8 4X4X4X4X4X4X4X4X4X4X",
"4X4X4X4X4X4X4X4X4X4X4X4X4X4X4X4X4X4X4X4X4X4X4X4X4Xs S.~.=X(.~.XX~.=X.X/.+X XT. .-.&X}.-X{.{.oX X X XOX}.).x.@ 4X4X4X4X4X4X4X4X4X",
"4X4X4X4X4X4X4X4X4X4X4X4X4X4X4X4X4X4X4X4X4X4X4X4X4Xe f._.*XOXXXXX(..X.X X/.+X/..X:. .L.|.}.OX.X.XXXXX XXX=X$XH.p z 4X4X4X4X4X4X4X",
"4X4X4X4X4X4X4X4X4X4X4X4X4X4X4X4X4X4X4X4X4X4X4X4X4X4X8 A P.}.{. X(..X+X+X X+X X/.OXF.O.:.&X{. X+X XOX X.XXX{.|.P.&.# 4X4X4X4X4X4X",
"4X4X4X4X4X4X4X4X4X4X4X4X4X4X4X4X4X4X4X4X4X4X4X4X4X4X4X4Xa P.}.|.XXXXT.;X(. XOXOX{. XOX-.V XXOXW.{. XoX XOXOX/. XW.Z., f.4X4X4X4X",
"4X4X4X4X4X4X4X4X4X4X4X4X4X4X4X4X4X4X4X4X4X4X4X4X4X4X4X4X4Xo g.&X|.;X;XU.+XOX|.XXOXOX{..XY.c L.-X-XXXXX/.oX.X+X.XXX!.D.n w 4X4X4X",
"4X4X4X4X4X4X4X4X4X4X4X4X4X4X4X4X4X4X4X4X4X4X4X4X4X4X4X4X4X4Xw S _.`.~.XX{.XXXXXX{.OX X.X{.OX+. .!.|.OX+XR. X+XR.(.:X~.~.*.% 4X4X",
"4X4X4X4X4X4X4X4X4X4X4X4X4X4X4X4X4X4X4X4X4X4X4X4X4X4X4X4X4X4X4Xa.2 H.`.%X|.=XoX^.{. X+X+XOXOX&XL.c F.XX X X+X+X+XQ.=XXX(.=XA.> 4X",
"4X4X4X4X4X4X4X4X4X4X4X4X4X4X4X4X4X4X4X4X4X4X4X4X4X4X4X4X4X4X4X4X4X+ g.`.W.=X~.OXOX XOX X{.OX{.{.OX .@.|.OX{..X XXX'.'.~.W.@.8 4X",
"4X4X4X4X4X4X4X4X4X4X4X4X4X4X4X4X4X4X4X4X4X4X4X4X4X4X4X4X4X4X4X4X4X4Xs x `.W.'.XX.X XOXOX+X XOXOXXX|.F.M V. XXX|.}.&XN.$.+.C.X.4X",
"4X4X4X4X4X4X4X4X4X4X4X4X4X4X4X4X4X4X4X4X4X4X4X4X4X4X4X4X4X4X4X4X4X4X4Xc.- m.~.~.oXoXXX^.OXOX X+X|.~.|.Q.$. .L.&XA. .+.T.oX~.w 4X",
"4X4X4X4X4X4X4X4X4X4X4X4X4X4X4X4X4X4X4X4X4X4X4X4X4X4X4X4X4X4X4X4X4X4X4X4X#XX B *X~.XXXXOXXXOX X.X XXX{.OX}.G. .m *.L.;X+X(./.= 4X",
"4X4X4X4X4X4X4X4X4X4X4X4X4X4X4X4X4X4X4X4X4X4X4X4X4X4X4X4X4X4X4X4X4X4X4X4X4X# g.x F.W.=XXXQ.OX+X/..X+XXX}.&X}.N.;X|.OX XY.~.F.1 4X",
"4X4X4X4X4X4X4X4X4X4X4X4X4X4X4X4X4X4X4X4X4X4X4X4X4X4X4X4X4X4X4X4X4X4X4X4X4Xa.z @XO.*.|.^.>XXXT.oX X.XOX&X}.:.N.{.OX X+XoX=X*.i.4X",
"4X4X4X4X4X4X4X4X4X4X4X4X4X4X4X4X4X4X4X4X4X4X4X4X4X4X4X4X4X4X4X4X4X4X4X4X4X4Xi.8 S.M.m !.E.=X=XXX+X X XXX}.@.XX X.X.X X^.|.b 4X4X",
"4X4X4X4X4X4X4X4X4X4X4X4X4X4X4X4X4X4X4X4X4X4X4X4X4X4X4X4X4X4X4X4X4X4X4X4X4X4X4X4X= &.P.+.;.Q.XXQ.XX+X{.XXOXN XXOX.X:X%X'.I.& 4X4X",
"4X4X4X4X4X4X4X4X4X4X4X4X4X4X4X4X4X4X4X4X4X4X4X4X4X4X4X4X4X4X4X4X4X4X4X4X4X4X4X4X4X0 p _.*.+.~.~.{.OX XXXW.+.{.(.XX~.$X`.z.s 4X4X",
"4X4X4X4X4X4X4X4X4X4X4X4X4X4X4X4X4X4X4X4X4X4X4X4X4X4X4X4X4X4X4X4X4X4X4X4X4X4X4X4X4X4X= H.%XC.V B.|.|.XX-XN.=.=X(.'._.S.C > 4X4X4X",
"4X4X4X4X4X4X4X4X4X4X4X4X4X4X4X4X4X4X4X4X4X4X4X4X4X4X4X4X4X4X4X4X4X4X4X4X4X4X4X4X4X4XZ z.!.XX{.-.$.}.|.~.=.V.^.'.n.b = 4X4X4X4X4X",
"4X4X4X4X4X4X4X4X4X4X4X4X4X4X4X4X4X4X4X4X4X4X4X4X4X4X4X4X4X4X4X4X4X4X4X4X4X4X4X4X4X4Xd H.|.{. X XB.N :.!.*X4Xh.2 0 4X4X4X4X4X4X4X",
"4X4X4X4X4X4X4X4X4X4X4X4X4X4X4X4X4X4X4X4X4X4X4X4X4X4X4X4X4X4X4X4X4X4X4X4X4X4X4X4X4X4Xq z.~.OX.XOX;XOX*.x d @ 4X4X4X4X4X4X4X4X4X4X",
"4X4X4X4X4X4X4X4X4X4X4X4X4X4X4X4X4X4X4X4X4X4X4X4X4X4X4X4X4X4X4X4X4X4X4X4X4X4X4X4X4X4X1 A.%X XoX X.XXX$Xn 4X4X4X4X4X4X4X4X4X4X4X4X",
"4X4X4X4X4X4X4X4X4X4X4X4X4X4X4X4X4X4X4X4X4X4X4X4X4X4X4X4X4X4X4X4X4X4X4X4X4X4X4X4X4X4X+ K.-X{.OXOXOX^.4Xa 4X4X4X4X4X4X4X4X4X4X4X4X",
"4X4X4X4X4X4X4X4X4X4X4X4X4X4X4X4X4X4X4X4X4X4X4X4X4X4X4X4X4X4X4X4X4X4X4X4X4X4X4X4X4X4X. ).{.OX X XOX|.4Xq 4X4X4X4X4X4X4X4X4X4X4X4X",
"4X4X4X4X4X4X4X4X4X4X4X4X4X4X4X4X4X4X4X4X4X4X4X4X4X4X4X4X4X4X4X4X4X4X4X4X4X4X4X4X4X4X= @X}.{.OXOX XOX4X, 4X4X4X4X4X4X4X4X4X4X4X4X",
"4X4X4X4X4X4X4X4X4X4X4X4X4X4X4X4X4X4X4X4X4X4X4X4X4X4X4X4X4X4X4X4X4X4X4X4X4X4X4X4X4X4X: I.&X XOX X.XOX4X- 4X4X4X4X4X4X4X4X4X4X4X4X",
"4X4X4X4X4X4X4X4X4X4X4X4X4X4X4X4X4X4X4X4X4X4X4X4X4X4X4X4X4X4X4X4X4X4X4X4X4X4X4X4X4X4Xw `.|.OX X XoX(.'.X 4X4X4X4X4X4X4X4X4X4X4X4X",
"4X4X4X4X4X4X4X4X4X4X4X4X4X4X4X4X4X4X4X4X4X4X4X4X4X4X4X4X4X4X4X4X4X4X4X4X4X4X4X4X4Xl S P.XXR.+X+X(.'._.. 4X4X4X4X4X4X4X4X4X4X4X4X",
"4X4X4X4X4X4X4X4X4X4X4X4X4X4X4X4X4X4X4X4X4X4X4X4X4X4X4X4X4X4X4X4X4X4X4X4X4X4X4X4X4Xs S.*X^.;X.X X(.(.K.O 4X4X4X4X4X4X4X4X4X4X4X4X",
"4X4X4X4X4X4X4X4X4X4X4X4X4X4X4X4X4X4X4X4X4X4X4X4X4X4X4X4X4X4X4X4X4X4X4X4X4X4X4X4X4X; C `.W.OX X XoX=X).; 4X4X4X4X4X4X4X4X4X4X4X4X",
"4X4X4X4X4X4X4X4X4X4X4X4X4X4X4X4X4X4X4X4X4X4X4X4X4X4X4X4X4X4X4X4X4X4X4X4X4X4X4X4X4X4XX.* *.'.*XW.^.~.h.r 4X4X4X4X4X4X4X4X4X4X4X4X",
"4X4X4X4X4X4X4X4X4X4X4X4X4X4X4X4X4X4X4X4X4X4X4X4X4X4X4X4X4X4X4X4X4X4X4X4X4X4X4X4X4X4X4X4X2 `.`.m.A.D.Z 4X4X4X4X4X4X4X4X4X4X4X4X4X",
"4X4X4X4X4X4X4X4X4X4X4X4X4X4X4X4X4X4X4X4X4X4X4X4X4X4X4X4X4X4X4X4X4X4X4X4X4X4X4X4X4X4X4X4X2 n g.< . > a.4X4X4X4X4X4X4X4X4X4X4X4X4X",
"4X4X4X4X4X4X4X4X4X4X4X4X4X4X4X4X4X4X4X4X4X4X4X4X4X4X4X4X4X4X4X4X4X4X4X4X4X4X4X4X4X4X4X4X4X4Xi.4X4X4X4X4X4X4X4X4X4X4X4X4X4X4X4X4X"
};
