/* XPM */
static char *result[] = {
/* columns rows colors chars-per-pixel */
"64 64 198 2 ",
"   c #16000B",
".  c #290618",
"X  c #341322",
"o  c #3A1A29",
"O  c #3C1626",
"+  c #3E1F31",
"@  c #3C2331",
"#  c #3F2A35",
"$  c #44192C",
"%  c #421529",
"&  c #451F31",
"*  c #481D31",
"=  c #43212F",
"-  c #4F2639",
";  c #482837",
":  c #4C2F3C",
">  c #5B2E43",
",  c #4D3A45",
"<  c #5B3C4A",
"1  c #563948",
"2  c #643849",
"3  c #693C50",
"4  c #3C6852",
"5  c #357E5B",
"6  c #397C5A",
"7  c #377456",
"8  c #39674D",
"9  c #5C424F",
"0  c #6E4256",
"q  c #664656",
"w  c #78495B",
"e  c #74485F",
"r  c #6E535E",
"t  c #67575F",
"y  c #75545F",
"u  c #64434C",
"i  c #54675B",
"p  c #46765E",
"a  c #466752",
"s  c #794E62",
"d  c #714B60",
"f  c #6E5260",
"g  c #7D5D6D",
"h  c #775765",
"j  c #4C7B64",
"k  c #467E62",
"l  c #567365",
"z  c #79616D",
"x  c #7B6570",
"c  c #627D70",
"v  c #874A66",
"b  c #96456C",
"n  c #85586C",
"m  c #9A4870",
"M  c #8B5D72",
"N  c #9F5979",
"B  c #965874",
"V  c #A14C73",
"C  c #A6537B",
"Z  c #A45B7C",
"A  c #AC567D",
"S  c #8E6276",
"D  c #8C6B7B",
"F  c #866C77",
"G  c #9B6A7F",
"H  c #96637B",
"J  c #39845F",
"K  c #3C8764",
"L  c #468465",
"P  c #488263",
"I  c #4C8A6B",
"U  c #488A68",
"Y  c #518B6C",
"T  c #56816A",
"R  c #4C946F",
"E  c #5B8A72",
"W  c #499872",
"Q  c #529473",
"!  c #5A9273",
"~  c #589A7A",
"^  c #638972",
"/  c #698576",
"(  c #63947C",
")  c #659B7E",
"_  c #67947B",
"`  c #5CA27E",
"'  c #AC5D83",
"]  c #A25F82",
"[  c #B55C83",
"{  c #996C80",
"}  c #9D7789",
"|  c #957785",
" . c #A66687",
".. c #AD6285",
"X. c #B16287",
"o. c #B3668A",
"O. c #AA768D",
"+. c #AB798E",
"@. c #BA6B91",
"#. c #A87D92",
"$. c #B27A92",
"%. c #BE7B99",
"&. c #BB7696",
"*. c #C46D95",
"=. c #C37397",
"-. c #C47A9B",
";. c #C7779A",
":. c #D17CA4",
">. c #D67FA9",
",. c #CB7BA2",
"<. c #7A8D81",
"1. c #738D80",
"2. c #6D9B81",
"3. c #6C9680",
"4. c #769B86",
"5. c #7D9C8C",
"6. c #5CA682",
"7. c #61A382",
"8. c #6DA386",
"9. c #62AA86",
"0. c #69AC89",
"q. c #71A588",
"w. c #68B28D",
"e. c #6DBA94",
"r. c #72BA95",
"t. c #79B997",
"y. c #958590",
"u. c #8D8689",
"i. c #A68996",
"p. c #B8849B",
"a. c #A1969E",
"s. c #87AC95",
"d. c #8BAC9C",
"f. c #86B499",
"g. c #90A898",
"h. c #BA8CA1",
"j. c #BE92A5",
"k. c #98BAA2",
"l. c #B3A3AE",
"z. c #C1879E",
"x. c #C88AA7",
"c. c #D785AB",
"v. c #D689AB",
"b. c #D98BAE",
"n. c #C893AA",
"m. c #D194AE",
"M. c #DA8CB3",
"N. c #CD9DB2",
"B. c #D395B2",
"V. c #DE93B4",
"C. c #D19AB1",
"Z. c #D99BB5",
"A. c #DC9DBA",
"S. c #DB9BBA",
"D. c #E38CB4",
"F. c #EC8EB9",
"G. c #E58EB8",
"H. c #F18EBC",
"J. c #E291B5",
"K. c #E495BB",
"L. c #EC94BD",
"P. c #E49BBB",
"I. c #EB9ABE",
"U. c #E794B6",
"Y. c #F293BE",
"T. c #F499BF",
"R. c #F992BF",
"E. c #DBA2BB",
"W. c #D5AABD",
"Q. c #E3A2BE",
"!. c #E9A5BE",
"~. c #93CCAC",
"^. c #AFDABF",
"/. c #EE96C0",
"(. c #E59FC1",
"). c #ED9CC2",
"_. c #F495C2",
"`. c #FA95C3",
"'. c #F49BC4",
"]. c #FA9BC5",
"[. c #F69DC9",
"{. c #FC9CC9",
"}. c #DDA9C2",
"|. c #E5A3C1",
" X c #EBA3C3",
".X c #EDA9CB",
"XX c #E7A7C4",
"oX c #F4A1C6",
"OX c #F9A1C7",
"+X c #F5A3CA",
"@X c #FBA2CC",
"#X c #F2A8CB",
"$X c #FEA9D0",
"%X c #BCDEC6",
"&X c #BEF3D5",
"*X c #ABE8C6",
"=X c #D1C5D0",
"-X c None",
/* pixels */
"-X-X-X-X-X-X-X-X-X-X-X<.i -X-X-X-X-X-X-X-X-X-X-X-X-X-X-X-X-X-X-X-X-X-X-X-X-X-X-X-X-X-X-X-X-X-X-X-X-X-X-X-X-X-X-X-X-X-X-X-X-X-X-X",
"-X-X-X-X-X-X-X-X-X-X/ 5.l -X-X-X-X-X-X-X-X-X-X-X-X-X-X-X-X-X-X-X-X-X-X-X-X-X-X-X-X-X-X-X-X-X-X-X-X-X-X-X-X-X-X-X-X-X-X-X-X-X-X-X",
"-X-X-X-X-X-X-X-X4.8.~ 7 j -X-X-X-X-X-X-X-X-X-X-X-X-X-X-X-X-X-X-X-X-X-X-X-X-X-X-X-X-X-X-X-X-X-X-X-X-X-X-X-X-X-X-X-X-X-X-X-X-X-X-X",
"-X-X-X-X-X-X-X^ 8.5 K K j -X-X-X-X-X-X-X-X-X-X-X-X-X-X-X-X-X-X-X-X-X-X-X-X-X-X-X-X-X-X-X-X-X-X-X-X-X-X-X-X-X-X-X-X-X-X-X-X-X-X-X",
"-X-X-X-X-X4.~ U 6 e.9.Q E -X-X-X-X-X-X-X-X-X-X-X-X-X-X-X-X-X-X-X-X-X-X-X-X-X-X-X-X-X-X-X-X-X-X-X-X-X-X-X-X-X-X-X-X-X-X-X-X-X-X-X",
"-X-X-X-X/ 2.5 ~ t.Q Q ~ k _ -X-X-X-X-X-X-X-X-X-X-X-X-X-X-X-X-X-X-X-X-X-X-X-X-X-X-X-X-X-X-X-X-X-X-X-X-X-X-X-X-X-X-X-X-X-X-X-X-X-X",
"-X-X-X_ I J 9.` 7.~.Y 0.5 P -X-X-X-X-X-X-X-X-X-X-X-X-X-X-X-X-X-X-X-X-X-X-X-X-X-X-X-X-X-X-X-X-X-X-X-X-X-X-X-X-X-X-X-X-X-X-X-X-X-X",
"-Xi s.p 5 ` 9.P %Xf.0.9.W L g.-X-X-X-X-X-X-X-X-X-X-X-X-X-X-X-X-X-X-X-X-X-X-X-X-X-X-X-X-X-X-X-X-X-X-X-X-X-X-X-X-X-X-X-X-X-X-X-X-X",
"-X-Xa P K W R &X%Xd.! w.w.6 ^ -X-X-X-X-X-X-X-X-X-X-X-X-X-X-X-X-X-X-X-X-X-X-X-X-X-X-X-X-X-X-X-X-X-X-X-X-X-X-X-X-X-X-X-X-X-X-X-X-X",
"-X-X-X8 J K J ! %X^ q.` w.7.p q.-X-X-X-X-X-X-X-X-X-X-X-X-X-X-X-X-X-X-X-X-X-X-X-X-X-X-X-X-X-X-X-X-X-X-X-X-X-X-X-X-X-X-X-X-X-X-X-X",
"-X-X-X-X8 J K L f.4.) ~ ` e.Q ! d.-X-X-X-X-X-X-X-X-X-X-X-X-X-X-X-X-X-X-X-X-X-X-X-X-X-X-X-X-X-X-X-X-X-X-X-X-X-X-X-X-X-X-X-X-X-X-X",
"-X-X-X-X-X8 L 7 8.8.q.t.` ` t.U ^ -X-X-X-X-X-X-X-X-X-X-X-X-X-X-X-X-X-X-X-X-X-X-X-X-X-X-X-X-X-X-X-X-X-X-X-X-X-X-X-X-X-X-X-X-X-X-X",
"-X-X-X-X-X-X4 T Y 8.7.6.e.e.` 8.E ^ -X-X-X-X-X-X-X-X-X-X-X-X-X-X-X-X-X-X-X-X-X-X-X-X-X-X-X-X-X-X-X-X-X-X-X-X-X-X-X-X-X-X-X-X-X-X",
"-X-X-X-X-X-X-Xl j I 7.` ` U ~.) 4.l 1.-X-X-X-X-X-X-X-X-X-X-X-X-X-X-X-X-X-X-X-X-X-X-X-X-X-X-X-X-X-X-X-X-X-X-X-X-X-X-X-X-X-X-X-X-X",
"-X-X-X-X-X-X-X-X-Xp Y ! U f.*X) ) _ -X-X-X-X-X-X-X-X-X-X-X-X-X-X-X-X-X-X-X-X-X-X-X-X-X-X-X-X-X-X-X-X-X-X-X-X-X-X-X-X-X-X-X-X-X-X",
"-X-X-X-X-X-X-X-X-X-X_ P T P ) ( s.-X-X-X-X-X-X-X-X-X-X-X-X-X-X-X-X-X-X-X-X-X-X-X-X-X-X-X-X-X-X-X-X-X-X-X-X-X-X-X-X-X-X-X-X-X-X-X",
"-X-X-X-X-X-X-X-X-X-X-X-X<./ c -X-X-X-X-X-X-X-X-X-X-X-X-X-X-X-X-X-X-X-X-X-X-X-X-X-X-X-X-X-X-X-X-X-X-X-X-X-X-X-X-X-X-X-X-X-X-X-X-X",
"-X-X-X-X-X-X-X-X-X-X-X-X-X-X-X-X-X-X-X-X-X-X-X-X-X-X-X-X-X-X-X-X-X-X-X-X-X-X-X-X-X-X-X-X-X-X-X-X-X-X-X-X-X-X-X-X-X-X-X-X-X-X-X-X",
"-X-X-X-X-X-X-X-X-X-X-X-X-X-X-X-X-X-X-X-X-X-X-X-X-X-X-X-X-X-X-X-X-X-X-X-X-X-X-X-X-X-X-X-X-X-X-X-X-X-X-X-X-X-X-X-X-X-X-X-X-X-X-X-X",
"-X-X-X-X-X-X-X-X-X-X-X-X-X-X-X-X-X-X-X-X-X-X-X-X-X-X-X-X-X-X-X-X-X-X-X-X-X-X-X-X-X-X-X-X-X-X-X-X-X-X-X-X-X-X-X-X-X-X-X-X-X-X-X-X",
"-X-X-X-X-X-X-X-X-X-X-X-X-X-X-X-X-X-X-X-X-X-X-X-X-X-X-X-X-X-X-X-X-X-Xs 2 G $.* -X-X-X-X-X-X-X-X-X-X-X-X-X-X-X-X-X-X-X-X-X-X-X-X-X",
"-X-X-X-X-X-X-X-X-X-X-X-X-X-X-X-X-X-X-X-X-X-X-X-X-X-X-X-X-X-X-X-X@ D p.E.!.P.|.M 1 -X-X-X-X-X-X-X-X-X-X-X-X-X-X-X-X-X-X-X-X-X-X-X",
"-X-X-X-X-X-X-X-X-X-X-X-X-X-X-X-X-X-X-X-X-X-X-X-X-X-X-X-X-Xz - +.m.A. XXX X!.P. XB.- -X-X-X-X-X-X-X-X-X-X-X-X-X-X-X-X-X-X-X-X-X-X",
"-X-X-X-X-X-X-X-X-X-X-X-X-X-X-X-X-X-X-X-X-X-X-X-X-X-X-X-X  } C.Q.I.oX/.P.oX'.L.'. XS.S 9 -X-X-X-X-X-X-X-X-X-X-X-X-X-X-X-X-X-X-X-X",
"-X-X-X-X-X-X-X-X-X-X-X-X-X-X-X-X-X-X-X-X-X-X-X-X-X-X-XF i.G &.I.L.].]._.'.'.[.L.'.V.XXh.& -X-X-X-X-X-X-X-X-X-X-X-X-X-X-X-X-X-X-X",
"-X-X-X-X-X-X-X-X-X-X-X-X-X-X-X-X-X-X-X-X-X-X-X-X-X-X-XX E. X=.A {.'.].]._.'._.+X/.$XK.P.A.n f -X-X-X-X-X-X-X-X-X-X-X-X-X-X-X-X-X",
"-X-X-X-X-X-X-X-X-X-X-X-X-X-X-X-X-X-X-X-X-X-X-X-X-X-X-X{ !.).'._.V :.].T.'.'.'.L.F.'.{.F.oX|.O.$ -X-X-X-X-X-X-X-X-X-X-X-X-X-X-X-X",
"-X-X-X-X-X-X-X-X-X-X-X-X-X-X-X-X-X-X-X-X-X-X-X-X-X-Xh p.P.'._.Y.'.=.[ I./.'.'.[.{._._.{.{.I.(.A.0 D -X-X-X-X-X-X-X-X-X-X-X-X-X-X",
"-X-X-X-X-X-X-X-X-X-X-X-X-X-X-X-X-X-X-X-X-X-X-X-X-X-X% Q.+XL.{.{.].Y.c.B B..X/.F.{.`.`.`.I.[.oXI.Q.O.- -X-X-X-X-X-X-X-X-X-X-X-X-X",
"-X-X-X-X-X-X-X-X-X-X-X-X-X-X-X-X-X-X-X-X-X-X-X-X-X-Xn P.[.L.{._.F.{.K.|. .@.+X'.`._.{.{.L.L.T.L.I.Z.n.3 -X-X-X-X-X-X-X-X-X-X-X-X",
"-X-X-X-X-X-X-X-X-X-X-X-X-X-X-X-X-X-X-X-X-X-X-X-X-X-XO.Q.'.[.L.[.OXT.Y.OX_.,.] M.).[./.L.{.{.[.].T.OXP.A.S 9 -X-X-X-X-X-X-X-X-X-X",
"-X-X-X-X-X-X-X-X-X-X-X-X-X-X-X-X-X-X-X-X-X-X-X-X-Xh j.E. X[.L.'.I.'.].F.`.{./.' ;.(.(.+XL.'.{.Y.R.R.'.P.XXh.o -X-X-X-X-X-X-X-X-X",
"-X-X-X-X-X-X-X-X-X-X-X-X-X-X-X-X-X-X-X-X-X-X-X-X-Xf i.N.(.+X{._.].].{.Y.`.].R.T.;.Z S. X).'._.`.]._.Y.`./.|.C.s x -X-X-X-X-X-X-X",
"-X-X-X-X-X-X-X-X-X-X-X-X-X-X-X-X-X-X-X-X-X-X-X-X-X-X1 | E.S./.'.Y.Y.].].R.].].T.'.M.C x. XL._.].'.].`.`._./.).A.#.@ -X-X-X-X-X-X",
"-X-X-X-X-X-X-X-X-X-X-X-X-X-X-X-X-X-X-X-X-X-X-X-X-X-X-X{ e A.(./.{.].D.@XY.R.T.'./._.[.;.' '.{.D.)._.`.`.].{.L./.S.n.< i.-X-X-X-X",
"-X-X-X-X-X-X-X-X-X-X-X-X-X-X-X-X-X-X-X-X-X-X-X-X-X-X-X-X-XO h..XP.OX@XF.OXOXI.).[._./._.F.b J.#X+X/.]._.'.].{.`.[.P.m.B w -X-X-X",
"-X-X-X-X-X-X-X-X-X-X-X-X-X-X-X-X-X-X-X-X-X-X-X-X-X-X-X-X-X-Xq S Z.P.U.'.L.oX'.[./.[._.`.'.'.....K.).+X[./._.{._.].OXI.I.&.$ -X-X",
"-X-X-X-X-X-X-X-X-X-X-X-X-X-X-X-X-X-X-X-X-X-X-X-X-X-X-X-X-X-X-X-X2 C.!. XI.'.{.U./._.{.{._.'. XV.b M.).)./.{._.{.L.'.T.I.oXC.1 -X",
"-X-X-X-X-X-X-X-X-X-X-X-X-X-X-X-X-X-X-X-X-X-X-X-X-X-X-X-X-X-X-X-X-Xo p.A.S.[.'.@X[._.{._.L._.L.I.).' @.).@X/.F.'.).I.T.I.U.o.< a.",
"-X-X-X-X-X-X-X-X-X-X-X-X-X-X-X-X-X-X-X-X-X-X-X-X-X-X-X-X-X-X-X-X-X-Xs h (.K.[./.{./._.'.{.'.'.'.).).M.m D.'./.[.|..Xc.*.[ c.| l.",
"-X-X-X-X-X-X-X-X-X-X-X-X-X-X-X-X-X-X-X-X-X-X-X-X-X-X-X-X-X-X-X-X-X-X-X-X> x.[.).[.[.'./.{.Y.Y.].'./.[./.@.' V.).x.] ..J.@XI.d =X",
"-X-X-X-X-X-X-X-X-X-X-X-X-X-X-X-X-X-X-X-X-X-X-X-X-X-X-X-X-X-X-X-X-X-X-X-X-X.  .)././.'.[.L.{.].].]././.'.).M.' ' %.K.oX'.R.P.@ -X",
"-X-X-X-X-X-X-X-X-X-X-X-X-X-X-X-X-X-X-X-X-X-X-X-X-X-X-X-X-X-X-X-X-X-X-X-X-X# p.v (.)./.@XJ.[.R.Y.`.`.{./.[.).:.[.[.@X'.F./.B.9 -X",
"-X-X-X-X-X-X-X-X-X-X-X-X-X-X-X-X-X-X-X-X-X-X-X-X-X-X-X-X-X-X-X-X-X-X-X-X-X-Xx }.N &.)./.OX@XL.].`.R.{.[.(.,.>._.'.F.{.{.'.$.y.-X",
"-X-X-X-X-X-X-X-X-X-X-X-X-X-X-X-X-X-X-X-X-X-X-X-X-X-X-X-X-X-X-X-X-X-X-X-X-X-X-X9 N.x.N  XU.'.I.[.{._._.Y.oXo.'._.].].'.I. XS =X-X",
"-X-X-X-X-X-X-X-X-X-X-X-X-X-X-X-X-X-X-X-X-X-X-X-X-X-X-X-X-X-X-X-X-X-X-X-X-X-X-X-X= +.E.N ;.I.oX'._.].'._.+XC '.'.R.].I.P.C.o -X-X",
"-X-X-X-X-X-X-X-X-X-X-X-X-X-X-X-X-X-X-X-X-X-X-X-X-X-X-X-X-X-X-X-X-X-X-X-X-X-X-X-X-Xf w A.-.A K.I.).'.'.L.I.' [.'.'.T.XX}.h.r -X-X",
"-X-X-X-X-X-X-X-X-X-X-X-X-X-X-X-X-X-X-X-X-X-X-X-X-X-X-X-X-X-X-X-X-X-X-X-X-X-X-X-X-X-X- B.!.V.C c.).L.+X[.v.@.[.I. XP.n.g : -X-X-X",
"-X-X-X-X-X-X-X-X-X-X-X-X-X-X-X-X-X-X-X-X-X-X-X-X-X-X-X-X-X-X-X-X-X-X-X-X-X-X-X-X-X-XD z.).'./.*.X.V.).).;.v.U.!.p.n ; -X-X-X-X-X",
"-X-X-X-X-X-X-X-X-X-X-X-X-X-X-X-X-X-X-X-X-X-X-X-X-X-X-X-X-X-X-X-X-X-X-X-X-X-X-X-X-X-Xg -X)._._.[.D.' -. XQ.Z.p.2 u -X-X-X-X-X-X-X",
"-X-X-X-X-X-X-X-X-X-X-X-X-X-X-X-X-X-X-X-X-X-X-X-X-X-X-X-X-X-X-X-X-X-X-X-X-X-X-X-X-X-Xq h.(.[./.{.[.).-.v M X | -X-X-X-X-X-X-X-X-X",
"-X-X-X-X-X-X-X-X-X-X-X-X-X-X-X-X-X-X-X-X-X-X-X-X-X-X-X-X-X-X-X-X-X-X-X-X-X-X-X-X-X-X< -X X/.[._.'.'.E.M -X-X-X-X-X-X-X-X-X-X-X-X",
"-X-X-X-X-X-X-X-X-X-X-X-X-X-X-X-X-X-X-X-X-X-X-X-X-X-X-X-X-X-X-X-X-X-X-X-X-X-X-X-X-X-Xo -X.X/.[.[.].Y..Xs -X-X-X-X-X-X-X-X-X-X-X-X",
"-X-X-X-X-X-X-X-X-X-X-X-X-X-X-X-X-X-X-X-X-X-X-X-X-X-X-X-X-X-X-X-X-X-X-X-X-X-X-X-X-X-X. -X).[.[./._.Y.|.3 -X-X-X-X-X-X-X-X-X-X-X-X",
"-X-X-X-X-X-X-X-X-X-X-X-X-X-X-X-X-X-X-X-X-X-X-X-X-X-X-X-X-X-X-X-X-X-X-X-X-X-X-X-X-X-X$ -X(._.`.{.`.@XA.> -X-X-X-X-X-X-X-X-X-X-X-X",
"-X-X-X-X-X-X-X-X-X-X-X-X-X-X-X-X-X-X-X-X-X-X-X-X-X-X-X-X-X-X-X-X-X-X-X-X-X-X-X-X-X-X> -X@X_.`._.'.'.|.- -X-X-X-X-X-X-X-X-X-X-X-X",
"-X-X-X-X-X-X-X-X-X-X-X-X-X-X-X-X-X-X-X-X-X-X-X-X-X-X-X-X-X-X-X-X-X-X-X-X-X-X-X-X-X-X0 |.'.{.`.`.{.).Z.o -X-X-X-X-X-X-X-X-X-X-X-X",
"-X-X-X-X-X-X-X-X-X-X-X-X-X-X-X-X-X-X-X-X-X-X-X-X-X-X-X-X-X-X-X-X-X-X-X-X-X-X-X-X-Xx S Q.[.F.{.{.Y.).}.. -X-X-X-X-X-X-X-X-X-X-X-X",
"-X-X-X-X-X-X-X-X-X-X-X-X-X-X-X-X-X-X-X-X-X-X-X-X-X-X-X-X-X-X-X-X-X-X-X-X-X-X-X-X-Xz j.XXL.@X`.Y.R.I.E.X -X-X-X-X-X-X-X-X-X-X-X-X",
"-X-X-X-X-X-X-X-X-X-X-X-X-X-X-X-X-X-X-X-X-X-X-X-X-X-X-X-X-X-X-X-X-X-X-X-X-X-X-X-X-X: h E.I.I.'.I.].!.N.: -X-X-X-X-X-X-X-X-X-X-X-X",
"-X-X-X-X-X-X-X-X-X-X-X-X-X-X-X-X-X-X-X-X-X-X-X-X-X-X-X-X-X-X-X-X-X-X-X-X-X-X-X-X-X-X| * p.P. XP.J.P.j.r -X-X-X-X-X-X-X-X-X-X-X-X",
"-X-X-X-X-X-X-X-X-X-X-X-X-X-X-X-X-X-X-X-X-X-X-X-X-X-X-X-X-X-X-X-X-X-X-X-X-X-X-X-X-X-X-X-X3 }.E.n.n.C.F -X-X-X-X-X-X-X-X-X-X-X-X-X",
"-X-X-X-X-X-X-X-X-X-X-X-X-X-X-X-X-X-X-X-X-X-X-X-X-X-X-X-X-X-X-X-X-X-X-X-X-X-X-X-X-X-X-X-X2 M i.> X , u.-X-X-X-X-X-X-X-X-X-X-X-X-X",
"-X-X-X-X-X-X-X-X-X-X-X-X-X-X-X-X-X-X-X-X-X-X-X-X-X-X-X-X-X-X-X-X-X-X-X-X-X-X-X-X-X-X-X-X-XW.} -X-X-X-X-X-X-X-X-X-X-X-X-X-X-X-X-X"
};
