/* XPM */
static char *result[] = {
/* columns rows colors chars-per-pixel */
"64 64 208 2 ",
"   c #060000",
".  c #1F000F",
"X  c #280315",
"o  c #2D1822",
"O  c #3E1225",
"+  c #391925",
"@  c #3C1929",
"#  c #381727",
"$  c #3F1E31",
"%  c #3B202F",
"&  c #3C2733",
"*  c #2C2827",
"=  c #431B2D",
"-  c #492234",
";  c #4C2639",
":  c #472D39",
">  c #4A2D3A",
",  c #5F2E44",
"<  c #4A3942",
"1  c #5C3446",
"2  c #573A49",
"3  c #64384A",
"4  c #693E52",
"5  c #3A4E43",
"6  c #38795A",
"7  c #3A7F60",
"8  c #5C404E",
"9  c #5C4350",
"0  c #6C4759",
"q  c #73475B",
"w  c #6D525C",
"e  c #476D5B",
"r  c #5E605F",
"t  c #48765E",
"y  c #53735E",
"u  c #645960",
"i  c #6D5461",
"p  c #785464",
"a  c #794F63",
"s  c #596D63",
"d  c #447C64",
"f  c #497C64",
"g  c #4B7F68",
"h  c #537B64",
"j  c #5A7A6A",
"k  c #547766",
"l  c #7B646D",
"z  c #7F6572",
"x  c #667169",
"c  c #963F69",
"v  c #864B67",
"b  c #835D6E",
"n  c #89586E",
"m  c #845569",
"M  c #91576F",
"N  c #994B71",
"B  c #885E72",
"V  c #A3537A",
"C  c #A6587D",
"Z  c #8C6275",
"A  c #8D6C7B",
"S  c #806070",
"D  c #91667A",
"F  c #897A7D",
"G  c #A7617D",
"H  c #3B845F",
"J  c #3F8562",
"K  c #3C8965",
"L  c #378261",
"P  c #3E9068",
"I  c #448365",
"U  c #4A8264",
"Y  c #448A6A",
"T  c #528166",
"R  c #52836C",
"E  c #558C6D",
"W  c #5B856D",
"Q  c #4B936E",
"!  c #4D8D72",
"~  c #5B8B71",
"^  c #598872",
"/  c #489471",
"(  c #4D9D78",
")  c #559174",
"_  c #5A9374",
"`  c #5A9977",
"'  c #5E987C",
"]  c #628975",
"[  c #678274",
"{  c #748C7C",
"}  c #63937A",
"|  c #649A7D",
" . c #AB5C83",
".. c #B25E84",
"X. c #B05F88",
"o. c #8F6E81",
"O. c #997E89",
"+. c #997687",
"@. c #A46384",
"#. c #AD6286",
"$. c #A16F84",
"%. c #B36289",
"&. c #B8648A",
"*. c #A5778A",
"=. c #B2758D",
"-. c #BD6B93",
";. c #AB7D92",
":. c #BA7695",
">. c #C27496",
",. c #C47C9E",
"<. c #CB789E",
"1. c #C7749B",
"2. c #C56E98",
"3. c #CA7DA1",
"4. c #D37DA5",
"5. c #649E81",
"6. c #699C80",
"7. c #739483",
"8. c #7B9B8B",
"9. c #739987",
"0. c #5EAB85",
"q. c #5BA481",
"w. c #64A484",
"e. c #6DA489",
"r. c #6CAE8C",
"t. c #66AA86",
"y. c #72AA8C",
"u. c #76A28B",
"i. c #67B28F",
"p. c #6AB08B",
"a. c #78A792",
"s. c #6ABB94",
"d. c #69B390",
"f. c #74B794",
"g. c #79B796",
"h. c #70C09B",
"j. c #8A8788",
"k. c #98808E",
"l. c #9F979F",
"z. c #9C8795",
"x. c #A98595",
"c. c #BA859D",
"v. c #B38399",
"b. c #A0969E",
"n. c #87A694",
"m. c #8AB69C",
"M. c #BC91A5",
"N. c #B78DA1",
"B. c #9DB1A9",
"V. c #B5AEB1",
"C. c #A2BDAA",
"Z. c #C0819C",
"A. c #C789A6",
"S. c #D484AA",
"D. c #D48AAC",
"F. c #DA8DAD",
"G. c #CB94AC",
"H. c #CC99AE",
"J. c #C495AA",
"K. c #D293AF",
"L. c #DB8DB3",
"P. c #CE97B1",
"I. c #CD9CB1",
"U. c #DD94B6",
"Y. c #D49AB4",
"T. c #D59DB9",
"R. c #DD9DBA",
"E. c #D898B3",
"W. c #E58DB6",
"Q. c #EB8EBA",
"!. c #E78EB8",
"~. c #F38EBC",
"^. c #E291B4",
"/. c #E594BA",
"(. c #EB94BC",
"). c #E49BBC",
"_. c #EB9ABE",
"`. c #E499B7",
"'. c #F393BE",
"]. c #F19ABF",
"[. c #F893BF",
"{. c #DBA2BC",
"}. c #D7A3BC",
"|. c #E3A2BD",
" X c #EBA0BF",
".X c #A6C6B4",
"XX c #ADD2BB",
"oX c #ED96C1",
"OX c #E59AC0",
"+X c #EC9CC2",
"@X c #F495C2",
"#X c #F996C3",
"$X c #F39BC4",
"%X c #FA9AC6",
"&X c #F59EC9",
"*X c #FB9CCA",
"=X c #DEA9C3",
"-X c #E5A2C2",
";X c #EBA3C4",
":X c #EBA8C5",
">X c #E9A6C7",
",X c #F2A1C6",
"<X c #F4A2CA",
"1X c #FCA2CC",
"2X c #FBA9D1",
"3X c #C6E9D4",
"4X c #E6FBEF",
"5X c None",
/* pixels */
"5X5X5X5X5X5X5X5X5X5X5X5X5X5X5X5X5X5X5X5X5X5X5X5X5X5X5X5X5X5X5X5X5X5X5X5X5X5X5X5X5X5X5X5X5X5X5X5X5X5X5X5X5X5X5X5X5X5X5X5X5X5X5X5X",
"5X5X5X5X5X5X5X5X5X5X5X5X5X5X5X5X5X5X5X5X5X5X5X5X5X5X5X5X5X5X5X5X5X5X5X5X5X5X5X5X5X5X5X5X5X5X5X5X5X5X5X5X5X5X5X5X5X5X5X5X5X5X5X5X",
"5X5X5X5X5X5X5X5X5X5X5X5X5X5X5X5X5X5X5X5X5X5X5X5X5X5X5X5X5X5X5X5X5X5X5X5X5X5X5X5X5X5X5X5X5X5X5X5X5X5X5X5X5X5X5X5X5X5X5X5X5X5X5X5X",
"5X5X5X5X5X5X5X5X5X5X5X5X5X5X5X5X5X5X5X5X5X5X5X5X5X5X5X5X5X5X5X5X5X5X5X5X5X5X5X5X5X5X5X5X5X5X5X5X5X5X5X5X5X5X5X5X5X5X5X5X5X5X5X5X",
"5X5X5X5X5X5X5X5X5X5X5X5X5X5X5X5X5X5X5X5X5X5X5X5X5X5X5X5X5X5X5X5X5X5X5X5X5X5X5X5X5X5X5X5X5X5X5X5X5X5X5X5X5X5X5X5X5X5X5X5X5X5X5X5X",
"5X5X5X5X5X5X5X5X5X5X5X5X5X5X5X5X5X5X5X5X5X5X5X5X5X5X5X5X5X5X5X5X5X5X5X5X5X5X5X5X5X5X5X5X5X5X5X5X5X5X5X5X5X5X5X5X5X5X5X5X5X5X5X5X",
"5X5X5X5X5X5X5X5X5X5X5X5X5X5X5X5X5X5X5X5X5X5X5X5X5X5X5X5X5X5X5X5X5X5X5X5X5X5X5X5X5X5X5X5X5X5X5X5X5X5X5X5X5X5X5X5X5X5X5X5X5X5X5X5X",
"5X5X5X5X5X5X5X5X5X5X5X5X5X5X5X5X5X5X5X5X5X5X5X5X5X5X5X5X5X5X5X5X5X5X5X5X5X5X5X5X5X5X5X5X5X5X5X5X5X5X5X5X5X5X5X5X5X5X5X5X5X5X5X5X",
"5X5X5X5X5X5X5X5X5X5X5X5X5X5X5X5X5X5X5X5X5X5X5X5X5X5X5X5X5X5X5X5X5X5X5X5X5X5X5X5X5X5X5X5X5X5X5X5X5X5X5X5X5X5X5X5X5X5X5X5X5X5X5X5X",
"5X5X5X5X5X5X5X5X5X5X5X5X5X5X5X5X5X5X5X5X5X5X5X5X5X5X5X5X5X5X5X5X5X5X5X5X5X5X5X5X5X5X5X5X5X5X5X5X5X5X5X5X5X5X5X5X5X5X5X5X5X5X5X5X",
"5X5X5X5X5X5X5X5X5X5X5X5X5X5X5X5X5X5X5X5X5X5X5X5X5X5X5X5X5X5X5X5X5X5X5X5X5X5X5X5X5X5X5X5X5X5X5X5X5X5X5X5X5X5X5X5X5X5X5X5X5X5X5X5X",
"5X5X5X5X5X5X5X5X5X5X5X5X5X5X5X5X5X5X5X5X5X5X5X5X5X5X5X5X5X5X5X5X5X5X5X5X5X5X5X5X5X5X5X5X5X5X5X5X5X5X5X5X5X5X5X5X5X5X5X5X5X5X5X5X",
"5X5X5X5X5X5X5X5X5X5X5X5X5X5X5X5X5X5X5X5X5X5X5X5X5X5X5X5X5X5X5X5X5X5X5X5X5X5X5X5X5X5X5X5X5X5X5X5X5X5X5X5X5X5X5X5X5X5X5X5X5X5X5X5X",
"5X5X5X5X5X5X5X5X5X5X5X5X5X5X5X5X5X5X5X5X5X7.5X5X5X5X5X5X5X5X5X5X5X5X5X5X5X5X5X5X5X5X5X5X5X5X5X5X5X5X5X5X5X5X5X5X5X5X5X5X5X5X5X5X",
"5X5X5X5X5X5X5X5X5X5X5X5X5X5X5X5X5X5X5Xj 8.n.j 5X5X5X5X5X5X5X5X5X5X5X5X5X5X5X5X5X5X5X5X5X5X5X5X5X5X5X5X5X5X5X5X5X5X5X5X5X5X5X5X5X",
"5X5X5X5X5X5X5X5X5X5X5X5X5X5X5X5X5Xa.9.7.g e k 7.5X5X5X5X5X5X5X5X5X5X5X5X5X5X5X5X5X5X5X5X5X5X5X5X5X5X5X5X5X5X5X5X5X5X5X5X5X5X5X5X",
"5X5X5X5X5X5X5X5X5X5X5X5X5X5X5X5X_ w.I U t.5.! f 8.5X5X5X5X5X5X5X5X5X5X5X5X5X5X5X5X5X5X5X5X5X5X5X5X5X5X5X5X5X5X5X5X5X5X5X5X5X5X5X",
"5X5X5X5X5X5X5X5X5X5X5X5X5X5X[ 9.L Y Q s.| U 5.) R 8.5X5X5X5X5X5X5X5X5X5X5X5X5X5X5X5X5X5X5X5X5X5X5X5X5X5X5X5X5X5X5X5X5X5X5X5X5X5X",
"5X5X5X5X5X5X5X5X5X5X5X5X5X5Xx W Y ( h.K m.C.] 9.Y d 5X5X5X5X5X5X5X5X5X5X5X5X5X5X5X5X5X5X5X5X5X5X5X5X5X5X5X5X5X5X5X5X5X5X5X5X5X5X",
"5X5X5X5X5X5X5X5X5X5X5X5X5X5X5Xj R Y ( g.XXXXn.} q.K I a.5X5X5X5X5X5X5X5X5X5X5X5X5X5X5X5X5X5X5X5X5X5X5X5X5X5X5X5X5X5X5X5X5X5X5X5X",
"5X5X5X5X5X5X5X5X5X5X5X5X5X5X5X5Xj t 6 r.n.3Xm.U ` i.H ) 8.5X5X5X5X5Xi 3 G x.= 5X5X5X5X5X5X5X5X5X5X5X5X5X5X5X5X5X5X5X5X5X5X5X5X5X",
"5X5X5X5X5X5X5X5X5X5X5X5X5X5X5X5X5Xk R U ~ XXf.` y.r.i.! j j.5Xk.% A c.|. X X|.n < 5X5X5X5X5X5X5X5X5X5X5X5X5X5X5X5X5X5X5X5X5X5X5X",
"5X5X5X5X5X5X5X5X5X5X5X5X5X5X5X5X5X5Xy f H ( H t.e.y.w.f.s : - ;.P.Y.|.<X<X/.).-XH.; 5X5X5X5X5X5X5X5X5X5X5X5X5X5X5X5X5X5X5X5X5X5X",
"5X5X5X5X5X5X5X5X5X5X5X5X5X5X5X5X5X5X5Xe H K h.| e.5.e.~   *.E.|. X,X$X_.$X'.$X+X-X}.D 9 5X5X5X5X5X5X5X5X5X5X5X5X5X5X5X5X5X5X5X5X",
"5X5X5X5X5X5X5X5X5X5X5X5X5X5X5X5X5X5X5X5Xy U Q p.r.y.y.5 *.G Z.(.[.#X%XoX_.+X1X/.<X`.-Xc.; 5X5X5X5X5X5X5X5X5X5X5X5X5X5X5X5X5X5X5X",
"5X5X5X5X5X5X5X5X5X5X5X5X5X5X5X5X5X5X5X5X5Xy t ) w.| ] * |.].1...#X%X[.].<X$X(.1X%X@X$X;XT.B i 5X5X5X5X5X5X5X5X5X5X5X5X5X5X5X5X5X",
"5X5X5X5X5X5X5X5X5X5X5X5X5X5X5X5X5X5X5X5X5X5X{ h t 9.x S -X+XoXOXV 4.%X%X(.@X&XQ.@X@X#X'.`.).c.O 5X5X5X5X5X5X5X5X5X5X5X5X5X5X5X5X",
"5X5X5X5X5X5Xn.n.5X5X5X5X5X5X5X5X5X5X5X5X5X5X5Xn.W y * H.OX+X&XOX,X>.%.(.$X$X&X1X%X#X@X*X%X+X).{.0 A 5X5X5X5X5X5X5X5X5X5X5X5X5X5X",
"5X5X5X5X9.h a.n.5X5X5X5X5X5X5X5X5X5X5X5X5X5X5X5XB.r = |._.+X+X&X<X`.F.N L.;X(.@X%X#X#X@X@X1X!.;X).*.; 5X5X5X5X5X5X5X5X5X5X5X5X5X",
"5X5X7.~ ) t ' ^ 5X5X5X5X5X5X5X5X5X5X5X5X5X5X5X5X5XV.M `.,X).oX&X_.,X_.,X .-.1XoX@X%X#X&X(.(.%X'.;XU.G.4 k.5X5X5X5X5X5X5X5X5X5X5X",
".XW T _ 0.f.6 y.5X5X5X5X5X5X5X5X5X5X5X5X5X5X5X5X5Xb.=.'.*X@X&X$X@X]./.$X$X4.V !.oX+X&X(.*X1X$X$X$X1X/.{.Z 8 5X5X5X5X5X5X5X5X5X5X",
"~ U 6.) K s.K w.5X5X5X5X5X5X5X5X5X5X5X5X5X5X5X5X5Xu K.].*X@X$X@X].$X1X(.oX$X(. .1.,XoX<X$X(.*X'.%X@X$X).-XN.@ 5X5X5X5X5X5X5X5X5X",
"| _ E m.J 0./ w.5X5X5X5X5X5X5X5X5X5X5X5X5X5X5X5X5Xu v.{.-X&X&X@X%X%X#X@X'.%X[.@X3. .^.+XOX&X@X#X$X$X&X@X_.OXY.a z 5X5X5X5X5X5X5X",
"p.E 5X5X5X0./ ) 5X5X5X5X5X5X5X5X5X5X5X5X5X5X5X5X5X5X2 o.T./.oX&X'.@X*X1X#X%X%X'.&XL.V A.+X/.@X&X$X+X@X*X$X$X;X:X+.% 5X5X5X5X5X5X",
"f.` 5XW 5.J L y.5X5X5X5X5X5X5X5X5X5X5X5X5X5X5X5X5X5X5X5Xq }.;X+X1X$XW.1X'.'.].$X@X&X&X1. .&X<X!.$X$X#X@X$X$X'.(./.Y.2 5X5X5X5X5X",
"w.t.y.T t E } y 5X5X5X5X5X5X5X5X5X5X5X5X5X5X5X5X5X5X5X5X5XO c.-X_.<X1XW.1X%X].$X@X#XoX@XQ.c L.,X+XoX%X@X%X%X%X#X&X).K.Z m 5X5X5X",
"' i.I h } h .X5X5X5X5X5X5X5X5X5X5X5X5X5X5X5X5X5X5X5X5X5X5X5X0 Z {.|._.$X].@X*X1X&X*X#X#X$X,X#.#.OX(.$X*X#X#X*X#X%X]._. X:.O 5X5X",
"0.6 _ W .X5X5X5X5X5X5X5X5X5X5X5X5X5X5X5X5X5X5X5X5X5X5X5X5X5X5X5X1 H.-X;X_.$X%XW.oXoX*X#X@X+X;X^.N U.$X@X@X#X~.#X].1X,X$X_.K.< 5X",
"d ^ 5X5X5X5X5X5X5X5X5X5X5X5X5X5X5X5X5X5X5X5X5X5X5X5X5X5X5X5X5X5X5X+ v.R./.$X+X*X*X*X*X@X'.$X(._.oX%.-.(.*X@X%X%X_._.oX_.W.=.9 l.",
"] 3X5X5X5X5X5X5X5X5X5X5X5X5X5X5X5X5X5X5X5X5X5X5X5X5X5X5X5X5X5X5X5X5Xp m R.+X$X$X*X@X@X@X&X@X$X,XoX$XL.N L.$XoX$X+X<XD.&.&.G.o.5X",
"4X5X5X5X5X5X5X5X5X5X5X5X5X5X5X5X5X5X5X5X5X5X5X5X5X5X5X5X5X5X5X5X5X5X5X5X, 3.>X+X@X&X&XoX*X@X'.@X$XoX&X/.-.X.).+XA.@...W.%X].0 5X",
"5X5X5X5X5X5X5X5X5X5X5X5X5X5X5X5X5X5X5X5X5X5X5X5X5X5X5X5X5X5X5X5X5X5X5X5X5XX @.+X$X@XoX&X(.$X@X1XoXoX$XoX+XL.X.C :.OX1X#X[.).- 5X",
"5X5X5X5X5X5X5X5X5X5X5X5X5X5X5X5X5X5X5X5X5X5X5X5X5X5X5X5X5X5X5X5X5X5X5X5X5X& v.v L.+X&X*X/.<X'.Q.%X%X&XOX+X+XS.1X+X*X@XQ.(.K.2 5X",
"5X5X5X5X5X5X5X5X5X5X5X5X5X5X5X5X5X5X5X5X5X5X5X5X5X5X5X5X5X5X5X5X5X5X5X5X5X5XS =X@.:.oXoX2X1X!.1X[.'.1X>XOX3.4.@X#X~.%X1X,X:.z.5X",
"5X5X5X5X5X5X5X5X5X5X5X5X5X5X5X5X5X5X5X5X5X5X5X5X5X5X5X5X5X5X5X5X5X5X5X5X5X5X5X8 I.K.C )./.$X$X$X1X@X$XoX+X%.oX@X#X[.'.]._.n 5X5X",
"5X5X5X5X5X5X5X5X5X5X5X5X5X5X5X5X5X5X5X5X5X5X5X5X5X5X5X5X5X5X5X5X5X5X5X5X5X5X5X5X; $.{.@.S._.;X_.oX$X@XoX,XV &X*X#X%X].;XY.= 5X5X",
"5X5X5X5X5X5X5X5X5X5X5X5X5X5X5X5X5X5X5X5X5X5X5X5X5X5X5X5X5X5X5X5X5X5X5X5X5X5X5X5X5Xi q R.=.#._.oXOX$X$X+X_.%.@X'.#X].OX{.M.i 5X5X",
"5X5X5X5X5X5X5X5X5X5X5X5X5X5X5X5X5X5X5X5X5X5X5X5X5X5X5X5X5X5X5X5X5X5X5X5X5X5X5X5X5X5X- R.).W.C S.,XOX+X,XD.>.<X].,X|.J.b < 5X5X5X",
"5X5X5X5X5X5X5X5X5X5X5X5X5X5X5X5X5X5X5X5X5X5X5X5X5X5X5X5X5X5X5X5X5X5X5X5X5X5X5X5X5X5XA A./.@X@X2.%.U.+X+X>.F.`.|.c.b & 5X5X5X5X5X",
"5X5X5X5X5X5X5X5X5X5X5X5X5X5X5X5X5X5X5X5X5X5X5X5X5X5X5X5X5X5X5X5X5X5X5X5X5X5X5X5X5X5Xp G.+X@XoX&X^.X.3.-X|.T.=.3 w 5X5X5X5X5X5X5X",
"5X5X5X5X5X5X5X5X5X5X5X5X5X5X5X5X5X5X5X5X5X5X5X5X5X5X5X5X5X5X5X5X5X5X5X5X5X5X5X5X5X5X2 A.+X<XoX&X$X+X:.a S @ O.5X5X5X5X5X5X5X5X5X",
"5X5X5X5X5X5X5X5X5X5X5X5X5X5X5X5X5X5X5X5X5X5X5X5X5X5X5X5X5X5X5X5X5X5X5X5X5X5X5X5X5X5X2 P.).&X*XoX&X,XOXZ x.5X5X5X5X5X5X5X5X5X5X5X",
"5X5X5X5X5X5X5X5X5X5X5X5X5X5X5X5X5X5X5X5X5X5X5X5X5X5X5X5X5X5X5X5X5X5X5X5X5X5X5X5X5X5X# }.>X&X&X@X#X!.>Xa 5X5X5X5X5X5X5X5X5X5X5X5X",
"5X5X5X5X5X5X5X5X5X5X5X5X5X5X5X5X5X5X5X5X5X5X5X5X5X5X5X5X5X5X5X5X5X5X5X5X5X5X5X5X5X5X. T.+X&XoXoX%X$X=X4 5X5X5X5X5X5X5X5X5X5X5X5X",
"5X5X5X5X5X5X5X5X5X5X5X5X5X5X5X5X5X5X5X5X5X5X5X5X5X5X5X5X5X5X5X5X5X5X5X5X5X5X5X5X5X5X= =XoX@X@X*X@X&XR.1 5X5X5X5X5X5X5X5X5X5X5X5X",
"5X5X5X5X5X5X5X5X5X5X5X5X5X5X5X5X5X5X5X5X5X5X5X5X5X5X5X5X5X5X5X5X5X5X5X5X5X5X5X5X5X5X1 R.&X@X*X@X#X+XOX, 5X5X5X5X5X5X5X5X5X5X5X5X",
"5X5X5X5X5X5X5X5X5X5X5X5X5X5X5X5X5X5X5X5X5X5X5X5X5X5X5X5X5X5X5X5X5X5X5X5X5X5X5X5X5X5Xq R.$X*X#X#X1X_.{.+ 5X5X5X5X5X5X5X5X5X5X5X5X",
"5X5X5X5X5X5X5X5X5X5X5X5X5X5X5X5X5X5X5X5X5X5X5X5X5X5X5X5X5X5X5X5X5X5X5X5X5X5X5X5X5Xl D -X$X[.*X1X'.oX=XX 5X5X5X5X5X5X5X5X5X5X5X5X",
"5X5X5X5X5X5X5X5X5X5X5X5X5X5X5X5X5X5X5X5X5X5X5X5X5X5X5X5X5X5X5X5X5X5X5X5X5X5X5X5X5Xu M.:X/.*X'.'.#X].T.+ 5X5X5X5X5X5X5X5X5X5X5X5X",
"5X5X5X5X5X5X5X5X5X5X5X5X5X5X5X5X5X5X5X5X5X5X5X5X5X5X5X5X5X5X5X5X5X5X5X5X5X5X5X5X5X: b }.,X].1X_.%X<XI.> 5X5X5X5X5X5X5X5X5X5X5X5X",
"5X5X5X5X5X5X5X5X5X5X5X5X5X5X5X5X5X5X5X5X5X5X5X5X5X5X5X5X5X5X5X5X5X5X5X5X5X5X5X5X5X5X+.O c.).:XU.^.|.J.w 5X5X5X5X5X5X5X5X5X5X5X5X",
"5X5X5X5X5X5X5X5X5X5X5X5X5X5X5X5X5X5X5X5X5X5X5X5X5X5X5X5X5X5X5X5X5X5X5X5X5X5X5X5X5X5X5X5X3 -X{.J.G.H.A F 5X5X5X5X5X5X5X5X5X5X5X5X",
"5X5X5X5X5X5X5X5X5X5X5X5X5X5X5X5X5X5X5X5X5X5X5X5X5X5X5X5X5X5X5X5X5X5X5X5X5X5X5X5X5X5X5X5X3 m x.1 o < j.5X5X5X5X5X5X5X5X5X5X5X5X5X",
"5X5X5X5X5X5X5X5X5X5X5X5X5X5X5X5X5X5X5X5X5X5X5X5X5X5X5X5X5X5X5X5X5X5X5X5X5X5X5X5X5X5X5X5X5X5X;.5X5X5X5X5X5X5X5X5X5X5X5X5X5X5X5X5X"
};
